<svg xmlns="http://www.w3.org/2000/svg" width="50" height="50" viewBox="0 0 50 50">
    <g fill="#FFF" fill-rule="nonzero">
        <path d="M45.833 0h-40a4.171 4.171 0 0 0-4.166 4.167V35.44A9.212 9.212 0 0 0 0 40.729C0 45.841 4.16 50 9.27 50c4.797 0 8.753-3.66 9.224-8.333h8.173V45A3.337 3.337 0 0 0 30 48.333 3.337 3.337 0 0 0 33.333 45v-3.333h12.5A4.171 4.171 0 0 0 50 37.5V4.167A4.171 4.171 0 0 0 45.833 0zM16.871 40.824v.003c-.053 4.147-3.44 7.506-7.6 7.506-4.194 0-7.604-3.41-7.604-7.604a7.56 7.56 0 0 1 1.529-4.555 7.71 7.71 0 0 1 .51-.61l.07-.077c.182-.191.372-.371.57-.54.021-.019.04-.039.061-.057.206-.173.422-.333.643-.482.1-.066.204-.124.307-.186.123-.075.245-.15.373-.217.125-.066.254-.126.383-.185.056-.026.112-.048.169-.072.192-.083.387-.16.584-.226.074-.025.149-.045.224-.068.178-.054.358-.105.54-.146.13-.029.262-.048.393-.07.119-.02.237-.042.356-.056l.055-.009c.276-.03.554-.048.837-.048a7.655 7.655 0 0 1 1.276.116c.29.049.575.112.853.193.043.013.087.02.13.034.293.09.577.206.856.332a7.523 7.523 0 0 1 .898.482 7.374 7.374 0 0 1 1.696 1.44c.085.096.17.195.25.296a7.572 7.572 0 0 1 .612.902c.165.285.319.578.448.887a7.574 7.574 0 0 1 .586 2.915l-.005.102zM26.667 40h-8.154c-.003-.038-.01-.074-.014-.112-.012-.138-.033-.274-.051-.41-.023-.166-.045-.33-.076-.492-.025-.135-.058-.267-.09-.4-.02-.084-.035-.17-.057-.253h8.442V40zm0-3.333h-9.063a.091.091 0 0 0-.006-.013l-.008-.014c-.038-.078-.082-.153-.122-.23-.027-.052-.055-.106-.084-.157a9.507 9.507 0 0 0-.179-.313l-.055-.088a9.422 9.422 0 0 0-.44-.65l-.002-.004a9.224 9.224 0 0 0-3.821-3.005l-.029-.012-.108-.044-.063-.026c-.2-.08-.402-.151-.607-.216-.028-.01-.056-.02-.085-.027a9.301 9.301 0 0 0-.832-.215l-.068-.013-.165-.028a9.27 9.27 0 0 0-.594-.088c-.048-.006-.094-.015-.141-.019-.037-.004-.076-.004-.113-.008a9.352 9.352 0 0 0-.812-.039c-.303 0-.6.018-.897.046-.078.008-.154.021-.23.03a2.578 2.578 0 0 0-.08.011c-.062.008-.125.015-.187.025-.133.02-.264.04-.395.067-.074.014-.147.032-.22.049-.2.044-.399.092-.594.149v-8.502h7.5c.329 0 .627-.194.761-.495l2.572-5.786.874 1.967c-.026.329-.04.657-.04.981a11.717 11.717 0 0 0 .087 1.37c.029.247.067.492.112.737.02.105.034.213.057.318a11.538 11.538 0 0 0 .538 1.776c.068.174.135.348.211.518.044.1.095.197.143.295.158.33.33.651.517.963.044.074.084.15.13.222l.003-.002a11.721 11.721 0 0 0 5.701 4.688V32.5c0 .736.326 1.392.834 1.85v2.317zm14.866-15c.079-.546.134-1.1.134-1.667 0-6.433-5.234-11.667-11.667-11.667-5.118 0-9.467 3.318-11.035 7.911l-.703-1.582a.834.834 0 0 0-1.524 0l-3.113 7.005H6.667V5H45v16.667h-3.467zM45 23.333v13.334H33.333V34.35a2.486 2.486 0 0 0 .834-1.85v-1.616a11.713 11.713 0 0 0 4.803-3.435l.004.003c.286-.344.545-.709.79-1.085a11.615 11.615 0 0 0 1.412-3.034H45zM31.667 37.5V45c0 .92-.748 1.667-1.667 1.667-.92 0-1.667-.748-1.667-1.667V35h3.334v2.5zm.833-5a.827.827 0 0 1-.567.78.812.812 0 0 1-.266.053h-3.334a.812.812 0 0 1-.265-.054.827.827 0 0 1-.567-.78l-.001-1.106c.012.003.025.004.038.006.354.077.715.134 1.08.178.047.005.093.016.14.021.409.044.822.069 1.242.069.42 0 .833-.025 1.242-.069.047-.005.094-.015.141-.021.365-.044.725-.101 1.08-.178l.037-.006V32.5zm.56-2.983c-.14.045-.28.08-.42.118-.146.04-.293.08-.443.114a10.265 10.265 0 0 1-.914.16c-.133.017-.265.034-.399.046a9.927 9.927 0 0 1-1.057.036 9.902 9.902 0 0 1-.708-.036c-.133-.012-.267-.03-.399-.047a10.265 10.265 0 0 1-.914-.159c-.15-.033-.297-.074-.444-.114-.14-.038-.28-.073-.418-.118a10.03 10.03 0 0 1-5.482-4.344c-.2-.327-.38-.664-.539-1.009-.016-.036-.035-.07-.05-.106-.071-.158-.134-.32-.196-.48a10.46 10.46 0 0 1-.452-1.496c-.02-.095-.033-.19-.05-.285a10.127 10.127 0 0 1-.126-.905C20.02 20.598 20 20.3 20 20c0-.34.018-.686.053-1.03C20.57 13.939 24.833 10 30 10c5.514 0 10 4.486 10 10a10.196 10.196 0 0 1-.593 3.36l-.042.115c-.11.3-.238.593-.377.88-.03.063-.059.127-.09.188-.13.255-.273.499-.423.74-.05.08-.093.161-.145.239a10.023 10.023 0 0 1-5.27 3.996zM48.332 37.5c0 1.378-1.121 2.5-2.5 2.5h-12.5v-1.667h12.5c.46 0 .834-.373.834-.833V4.167a.834.834 0 0 0-.834-.834h-40A.834.834 0 0 0 5 4.167v28.339l-.09.047c-.027.015-.053.027-.08.041-.238.131-.47.273-.697.425l-.054.034c-.222.152-.439.314-.649.485-.02.017-.042.031-.062.048-.01.009-.023.017-.035.026V4.167c0-1.379 1.122-2.5 2.5-2.5h40c1.379 0 2.5 1.121 2.5 2.5V37.5z"/>
        <path d="M9.167 40.833v-5H7.5v5.834c0 .46.373.833.833.833h5.834v-1.667h-5zM30 11.667c-4.595 0-8.333 3.738-8.333 8.333 0 .635.077 1.25.212 1.845v.007c.008.037.021.073.03.11.09.369.202.727.338 1.075.024.063.044.128.07.19.014.035.031.067.046.1.095.219.197.431.308.639l.008.015a8.251 8.251 0 0 0 4.81 3.965l.078.024c.215.065.432.12.653.168.057.013.113.026.17.037.2.04.403.07.608.093.066.009.132.02.199.026.265.023.532.04.803.04.27 0 .538-.017.802-.041.067-.007.132-.018.199-.026.205-.024.408-.055.608-.094.057-.01.113-.024.17-.036.221-.048.439-.104.653-.169l.079-.024a8.253 8.253 0 0 0 4.809-3.966l.008-.015c.111-.207.214-.42.308-.638.015-.034.032-.066.046-.1.026-.063.046-.128.07-.19.137-.348.249-.707.338-1.075.01-.038.022-.073.03-.11v-.008A8.221 8.221 0 0 0 38.333 20c0-4.595-3.738-8.333-8.333-8.333zm6.168 10.854a6.742 6.742 0 0 1-1.268 1.986c-.074.08-.148.163-.225.24-.12.119-.247.232-.376.342-.07.06-.142.114-.214.17a6.625 6.625 0 0 1-.672.459c-.105.062-.208.125-.316.182a6.766 6.766 0 0 1-1.236.498 6.456 6.456 0 0 1-.965.202 6.943 6.943 0 0 1-.896.067 6.728 6.728 0 0 1-1.148-.107 6.7 6.7 0 0 1-.71-.162 6.45 6.45 0 0 1-.333-.109 6.353 6.353 0 0 1-.903-.39c-.108-.056-.213-.12-.317-.182a6.863 6.863 0 0 1-.671-.459c-.073-.055-.145-.11-.215-.17a6.615 6.615 0 0 1-.375-.341c-.079-.078-.151-.16-.226-.241a6.452 6.452 0 0 1-.446-.54 6.6 6.6 0 0 1-.283-.41c-.056-.09-.113-.18-.166-.273a6.604 6.604 0 0 1-.373-.763l-.007-.02h2.84c.299 0 .575-.16.723-.42l2.503-4.38 1.841 4.294c.131.308.433.506.766.506h3.676l-.008.02zm.441-1.688H33.05l-2.283-5.328a.83.83 0 0 0-.719-.503.844.844 0 0 0-.77.418l-3.095 5.413h-2.791a6.549 6.549 0 0 1-.059-.833A6.674 6.674 0 0 1 30 13.333 6.674 6.674 0 0 1 36.667 20c0 .282-.024.56-.058.833z"/>
    </g>
</svg>
