<svg xmlns="http://www.w3.org/2000/svg" width="50" height="51" viewBox="0 0 50 51">
    <g fill="#FFF" fill-rule="nonzero">
        <path d="M19.406 26.549h-.865c2.057-1.539 3.396-3.985 3.396-6.745V16.43a8.297 8.297 0 0 0-.556-2.967 5.888 5.888 0 0 0 2.244-4.62.843.843 0 0 0-.844-.844H10.97a5.911 5.911 0 0 0-5.906 5.902v5.902c0 2.76 1.34 5.206 3.396 6.745h-.865C3.406 26.549 0 29.954 0 34.137v16.02c0 .465.377.843.844.843h25.312a.843.843 0 0 0 .844-.843v-16.02c0-4.183-3.406-7.588-7.594-7.588zM6.75 13.902a4.222 4.222 0 0 1 4.219-4.216h10.883a4.223 4.223 0 0 1-1.969 2.767c-.091.055-.186.1-.281.146a4.11 4.11 0 0 1-.309.144 4.172 4.172 0 0 1-.665.205c-.082.019-.163.038-.246.052a4.189 4.189 0 0 1-.663.059h-7.045a.841.841 0 0 0-.795.562c-.069.196-.155.382-.25.562-.029.056-.064.108-.096.163-.071.12-.145.238-.227.35-.043.06-.089.115-.134.171a4.249 4.249 0 0 1-.726.702c-.052.039-.1.08-.154.117a4.108 4.108 0 0 1-.446.267c-.022.012-.042.026-.065.037a4.305 4.305 0 0 1-.552.226c-.055.019-.112.03-.168.047-.103.03-.206.052-.311.074v-2.435zm0 5.902v-1.747c.015-.002.028-.007.042-.008.248-.038.491-.092.73-.16.084-.024.165-.057.249-.086.164-.055.326-.112.484-.18.094-.04.182-.088.274-.133a6.04 6.04 0 0 0 .417-.226 6.174 6.174 0 0 0 .882-.65c.119-.106.23-.218.34-.334.07-.073.143-.145.208-.221.114-.132.217-.273.32-.414.05-.071.105-.138.153-.21.143-.22.275-.449.39-.69h6.48c.192 0 .384-.01.575-.029.12-.011.235-.032.352-.05.068-.011.137-.018.204-.031.149-.029.293-.067.437-.107.035-.009.07-.016.104-.027.158-.046.312-.102.465-.16l.05-.018c.228.68.344 1.387.344 2.108v3.373c0 3.719-3.028 6.745-6.75 6.745s-6.75-3.026-6.75-6.745zm5.063 8.925v-.494h3.374v.494L13.5 30.416l-1.688-1.687zm3.469 4.361l1.51 9.05-3.292 1.975-3.291-1.974 1.509-9.05 1.782-.594 1.782.593zm10.03 16.224H1.688V34.137a5.911 5.911 0 0 1 5.907-5.902h2.531v.843a.84.84 0 0 0 .247.597l1.565 1.564-1.236.411a.842.842 0 0 0-.565.661L8.448 42.429c-.056.341.1.683.399.861l4.218 2.53a.84.84 0 0 0 .87 0l4.218-2.529a.843.843 0 0 0 .399-.861l-1.688-10.118a.842.842 0 0 0-.565-.661l-1.236-.412 1.565-1.564a.843.843 0 0 0 .247-.597v-.843h2.531a5.911 5.911 0 0 1 5.907 5.902v15.177zM45.896 32.946a6.578 6.578 0 0 0 1.65-4.358C47.545 24.956 44.608 22 41 22c-3.609 0-6.545 2.956-6.545 6.588 0 1.671.626 3.195 1.649 4.358A5.767 5.767 0 0 0 32 38.47v10.705a.82.82 0 0 0 .818.824h16.364a.82.82 0 0 0 .818-.824V38.471a5.767 5.767 0 0 0-4.104-5.525zm-9.805-4.358c0-2.725 2.202-4.94 4.909-4.94s4.91 2.215 4.91 4.94a4.945 4.945 0 0 1-2.402 4.24 4.92 4.92 0 0 1-5.015 0 4.944 4.944 0 0 1-2.402-4.24zm12.273 19.765H33.636V38.47c0-2.27 1.836-4.118 4.091-4.118h.112a6.465 6.465 0 0 0 3.161.823c1.146 0 2.224-.3 3.161-.823h.112c2.255 0 4.09 1.847 4.09 4.118v9.882z"/>
        <path d="M45.781 0H33.125c-2.326 0-4.219 1.835-4.219 4.09v7.026l-5.659 5.487a.8.8 0 0 0-.183.892c.13.305.439.505.78.505H45.78C48.107 18 50 16.165 50 13.91V4.09C50 1.836 48.107 0 45.781 0zm2.532 13.91c0 1.352-1.136 2.454-2.532 2.454h-19.9l4.466-4.331a.804.804 0 0 0 .247-.578V4.09c0-1.353 1.136-2.455 2.531-2.455h12.656c1.396 0 2.532 1.102 2.532 2.455v9.818z"/>
        <path d="M33 3h14v2H33zM33 7h14v2H33zM33 10h14v2H33zM33 13h14v2H33zM40 37h2v2h-2zM40 40h2v2h-2zM11.5 20H10c0 1.654 1.345 3 3 3v-1.5c-.827 0-1.5-.673-1.5-1.5z"/>
    </g>
</svg>
