<svg xmlns="http://www.w3.org/2000/svg" width="50" height="50" viewBox="0 0 50 50">
    <path fill="#FFF" fill-rule="nonzero" d="M49.138 0H.862A.861.861 0 0 0 0 .862v48.276c0 .477.385.862.862.862h48.276a.861.861 0 0 0 .862-.862V.862A.861.861 0 0 0 49.138 0zM1.724 1.724h22.414v7.759c0 .476.385.862.862.862h6.897a.861.861 0 0 0 .862-.862V8.116l4.815 4.815-4.815 4.816v-1.368a.861.861 0 0 0-.862-.862H25a.861.861 0 0 0-.862.862v7.759H17.24v-5.172h2.587a.861.861 0 0 0 .61-1.472l-6.897-6.897a.861.861 0 0 0-1.22 0l-6.896 6.897a.862.862 0 0 0 .61 1.472H8.62v5.172H1.724V1.724zm22.414 46.552H1.724V25.862h7.759a.861.861 0 0 0 .862-.862v-6.897a.861.861 0 0 0-.862-.862H8.116l4.815-4.815 4.816 4.815h-1.368a.861.861 0 0 0-.862.862V25c0 .477.386.862.862.862h7.759v6.897h-5.172v-2.587a.861.861 0 0 0-1.472-.61l-6.897 6.897a.861.861 0 0 0 0 1.22l6.897 6.896a.861.861 0 1 0 1.472-.61V41.38h5.172v6.897zm24.138 0H25.862v-7.759a.861.861 0 0 0-.862-.862h-6.897a.861.861 0 0 0-.862.862v1.367l-4.815-4.815 4.815-4.816v1.368c0 .476.386.862.862.862H25a.861.861 0 0 0 .862-.862v-7.759h6.897v5.172h-2.587a.861.861 0 0 0-.61 1.472l6.897 6.897a.861.861 0 0 0 1.22 0l6.896-6.897a.862.862 0 0 0-.61-1.472H41.38v-5.172h6.897v22.414zm0-24.138h-7.759a.861.861 0 0 0-.862.862v6.897c0 .476.386.862.862.862h1.367l-4.815 4.815-4.816-4.815h1.368a.861.861 0 0 0 .862-.862V25a.861.861 0 0 0-.862-.862h-7.759V17.24h5.172v2.587a.861.861 0 0 0 1.472.61l6.897-6.897a.861.861 0 0 0 0-1.22l-6.897-6.896a.861.861 0 0 0-1.472.61V8.62h-5.172V1.724h22.414v22.414z"/>
</svg>
