<svg xmlns="http://www.w3.org/2000/svg" width="120" height="100" viewBox="0 0 120 100">
    <g fill="none" fill-rule="evenodd">
        <path fill="#FFF" d="M0 0h120v100H0z"/>
        <g fill-rule="nonzero">
            <path fill="#5BD0FC" d="M34.202 1.049c-2.385.136-4.556.429-6.864 1.091-2.308.663-4.185 1.852-6.082 3.295-2.64 2.007-4.655 4.561-5.476 7.836-.782 3.177-.352 6.257 1.173 9.142 1.174 2.222 3.345 3.723 5.555 4.776 2.444 1.15 5.632 1.657 8.311 1.852 1.252.097 2.503.117 3.755.175.489.02 1.506-.136 1.956.078.43.195.84 1.15 1.114 1.462.783.936 1.604 1.852 2.523 2.651.567.507 1.115.936 1.78 1.306.196.117.41.156.567.312.665-1.774.606-3.762.743-5.614.04-.487-.02-.857.333-1.15.41-.331 1.682-.468 2.19-.643 5.163-1.793 10.913-5.322 11.578-11.306.528-4.678-2.68-8.792-6.2-11.501C46.641 1.36 40.97.19 35.376.854"/>
            <g fill="#F0F2FA">
                <path d="M76.054 33.524c-2.66.059-5.34-.195-8.018-.214-1.506 0-2.973.117-4.479.214-1.408.078-2.875-.039-4.263.293-2.093.507-4.068 1.637-4.987 3.606-1.115 2.34-1.37 4.444-1.447 7.018-.157 5.126.136 10.136 1.408 15.126.43 1.696 1.134 2.827 2.698 3.704 2.015 1.111 4.479 1.403 6.708 1.696 5.809.8 11.754.331 17.601.058 1.995-.097 3.912-.467 5.868-.896 1.33-.293 2.835-.507 4.087-1.111 2.796-1.345 3.5-4.737 3.637-7.564.196-4.171.255-8.518 0-12.67-.117-1.891-.195-4.055-.665-5.887-.352-1.404-1.29-2.203-2.62-2.73-2.327-.916-4.968-1.15-7.451-1.344-1.447-.098-2.856-.195-4.322-.195-1.408.02-2.973-.117-3.755.896zM75.428 71.42c-6.669-.976-13.455-.313-20.143.194-2.504.195-5.046.546-7.354 1.598-2.444 1.112-3.598 3.997-3.852 6.511-.255 2.67-.313 5.497-.352 8.187-.02 2.145-.176 4.386.058 6.53.098.8.137 2.769.665 3.47.92 1.19 4.518.702 5.633.605 5.534-.468 11.108-.293 16.642-.273 5.359.02 10.737-.722 16.076-.273.782.058 1.564.136 2.327.214 1.8.156 3.599.176 5.398.059 2.053-.137 4.341-.254 6.395-.078 1.701.136 3.168.292 4.889-.156.606-.156 1.31-.156 1.858-.43 1.975-1.013 1.467-2.787 1.369-4.541-.137-2.515-.567-4.99-.743-7.505-.176-2.592-.43-5.341-1.017-7.895-.509-2.241-1.76-3.781-3.833-4.756-2.836-1.345-6.337-1.676-9.427-1.95-4.732-.39-9.367.371-14.589.488z"/>
            </g>
            <path fill="#D8DEEC" d="M55.46 95.903c-.038-1.462-.156-2.807 0-4.27.157-1.559.333-3.118.45-4.697.098-1.228.157-2.476.333-3.704.195-1.267.137-2.593 1.193-3.509.821-.721 2.132-1.208 3.227-1.17.88.04 1.72.43 2.6.546 1.526.195 3.15.04 4.694 0 4.85-.156 9.72-.292 14.57-.078 2.719.117 5.437.098 8.136.41.782.097 1.936-.098 2.444.585 1.135 1.5.333 3.996.176 5.653-.332 3.664-.215 7.368-.215 11.052 0 1.072.235 1.482-.939 1.56-4.81.292-9.72.156-14.53 0-7.1-.234-14.237.565-21.297-.488-1.252-.195-.802-.76-.841-1.89z"/>
            <path fill="#5B5D6D" d="M64.809 64.967c-.059 1.13.156 2.242.195 3.353.04.76-.313 2.378.098 3.08.372.623.86.37 1.467.292 4.283-.546 8.585-.41 12.888-.526.743-.02 1.486-.156 2.249-.137.215 0 1.173.215 1.35.059.156-.137.058-.546.058-.722.02-1.15-.157-2.3-.313-3.45-.098-.78-.098-1.56-.098-2.339-2.444.331-4.948.331-7.412.468-3.461.175-6.942.273-10.482-.078z"/>
            <path fill="#D8DEEC" d="M71.478 16.487c-.118 3.821.234 7.778.782 11.56.997-.585 3.148-.877 4.244-.43.234-2.943-.744-5.886-.47-8.849.079-.897.352-1.871.059-2.749-1.467.04-2.836.293-4.615.468z"/>
            <path fill="#ED6D66" d="M73.727 7.657c-.9-.292-2.171.994-2.719 1.637-.919 1.092-1.134 1.891-.978 3.256.255 2.066 1.917 3.1 3.912 3.177 2.23.098 3.598-1.13 4.302-3.216.333-.975.313-2.223-.293-3.1-.45-.662-1.213-.799-1.878-1.17-.508-.272-1.095-.935-2.346-.584z"/>
            <g fill="#F9D889">
                <path d="M61.601 42.491c-2.053 1.248-3.187 4.094-1.818 6.2 1.017 1.578 3.09 2.494 4.908 1.617 1.917-.936 2.504-3.509 2.093-5.439-.509-2.28-3.383-4.21-5.183-2.378zM83.74 42.57c-2.21.974-2.66 3.82-1.663 5.847.822 1.677 2.64 2.047 4.342 1.618 1.877-.468 2.62-2.3 2.699-4.132.039-.936-.059-1.891-.646-2.652-.801-1.091-2.698-1.734-4.732-.682z"/>
            </g>
            <path fill="#D8DEEC" d="M73.531 44.265c-.958.76-1.545 2.378-2.053 3.43-.255.527-.626 1.132-.607 1.736 1.037.487 2.523.156 3.638.214.665.04 1.447.293 2.073-.02.958-.448.02-1.793-.333-2.63-.312-.761-.743-1.268-1.153-1.93-.176-.332-.196-.956-1.565-.8z"/>
            <path fill="#FFF" d="M79.378 53.096c-3.07-.897-6.258-.546-9.426-.546-2.386 0-5.28-.37-7.568.39-.743.253-1.936.916-2.308 1.676-.372.76-.117 2.144.156 2.904 1.017 2.71 5.3 2.398 7.667 2.574 2.562.175 5.084.35 7.646.331 2.308 0 4.577-.507 6.865-.682 1.095-.078 2.444 0 3.403-.546.977-.565 1.74-1.832 1.78-2.983.058-1.15-.94-2.397-1.917-2.904-1.037-.546-2.171-.624-3.325-.721-.978-.098-1.936-.215-2.914-.059-.567.078-1.154.37-1.72.234"/>
            <path fill="#ED6D66" d="M62.012 83.251c-.547.137-1.056 1.053-1.369 1.52-.723 1.151-1.075 2.145-.723 3.451.684 2.456 3.207 3.801 5.534 2.495 1.8-1.013 2.073-4.171 1.428-5.848-.333-.896-.88-1.812-1.878-2.105-.9-.273-2.034.351-2.992.487z"/>
            <path fill="#CBE580" d="M71.81 83.66c-2.308 1.346-2.073 5.634.078 7.077 1.428.975 3.618.214 4.674-.994 1.037-1.17 1.428-3.529.646-4.854-.411-.702-.88-1.014-1.604-1.384-1.271-.663-2.053-.604-3.794.156z"/>
            <path fill="#F9D889" d="M81.295 83.446c0 3.08-.156 6.14-.274 9.22-.039.956.04 1.911.078 2.866.06.975-.156 2.203.157 3.139 2.132.02 4.83.584 6.943-.078.39-.117.332 0 .528-.293.176-.253.039-1.403.039-1.579.02-.916.117-1.832.176-2.748.215-3.607.274-7.252.313-10.858-2.23-.156-4.498.331-7.96.331z"/>
            <g fill="#5B5D6D">
                <path d="M76.719 94.11c-.059-1.053-1.975-.937-2.66-.956-1.72-.058-3.422-.02-5.143-.136-2.777-.176-5.652-.078-8.43.136-.84.058-2.014 1.053-.938 1.832.41.312 1.78.215 2.288.293.86.136 1.721.195 2.582.253 3.187.195 6.2.254 9.367-.156.841-.078 4.146.215 2.934-1.267zM64.378 33.232c-.117.175-.215.35-.352.507.392-.897 1.545-1.774 2.308-2.359 1.134-.858 2.562-1.676 3.912-2.144 2.385-.819 4.967-.819 7.45-.41.998.156 1.741.488 2.621.975.665.37 1.232.507 1.78 1.053.684.702 1.897 2.28 1.252 3.294-.529-.02-1.057-.136-1.585-.136-2.268-.04-4.517.117-6.786.058a41.791 41.791 0 0 0-6.238.293c-1.096.136-2.993.623-4.029.058"/>
            </g>
            <path fill="#000" d="M23.994 8.359c3.95.039 7.881.331 11.832.37 3.95.039 7.9.078 11.831 0 .9-.02.9-1.384 0-1.403-3.95-.078-7.9-.04-11.831 0-3.95.039-7.901.33-11.832.37-.41.02-.41.643 0 .663zM23.994 13.466c3.95.039 7.881.331 11.832.37 3.95.04 7.9.078 11.831 0 .9-.02.9-1.384 0-1.403-3.95-.078-7.9-.04-11.831 0-3.95.039-7.901.331-11.832.37-.41.02-.41.663 0 .663zM64.007 50.893c2.68-.468 4.185-3.178 3.618-5.712-.587-2.71-3.325-4.6-6.043-3.547-1.154.448-1.995 1.364-2.484 2.456-.489.857-.665 1.871-.528 2.865.352 2.593 2.855 4.386 5.437 3.938zm-4.224-5.4c.332-1.56 1.78-2.826 3.422-2.71 2.503.196 3.931 3.334 2.542 5.4-2.033 3.002-6.707.741-5.964-2.69zM86.008 50.893c2.68-.468 4.185-3.178 3.618-5.712-.586-2.71-3.324-4.6-6.043-3.547-1.154.448-1.995 1.364-2.484 2.456-.488.857-.664 1.871-.528 2.865.372 2.593 2.875 4.386 5.437 3.938zm-4.224-5.4c.332-1.56 1.78-2.826 3.422-2.71 2.504.196 3.931 3.334 2.543 5.4-2.034 3.002-6.689.741-5.965-2.69zM74.294 50.503c.978.039 2.542.097 3.168-.838.567-.838.156-2.184-.235-3.002-.47-.994-1.408-2.69-2.444-3.178-.978-.448-1.76.312-2.25 1.092-.273.429-.527.877-.782 1.326-.254.35-.469.72-.665 1.11-.39.8-.997 1.97-.215 2.73.763.72 2.445.72 3.423.76zm-2.386-2.554c.254-.468.489-.955.743-1.423.215-.37.88-1.676 1.408-1.676.313 0 1.369 1.657 1.506 1.871.235.37 1.076 1.638.782 2.125-.332.546-1.72.35-2.23.331a8.66 8.66 0 0 1-1.427-.175c-.47-.078-.88-.02-.86-.624 0-.136.02-.292.078-.429zM77.423 61.146c2.68-.078 5.652-.273 8.155-1.345 1.858-.8 3.54-2.807 2.64-4.912-1.075-2.515-4.674-2.67-6.982-2.807-2.444-.137-4.908-.176-7.353-.137a59.254 59.254 0 0 0-6.708-.097c-2.366.117-5.593.234-7.275 2.164-1.408 1.618-.86 3.8.802 4.99 2.092 1.5 5.26 1.637 7.744 1.852 2.953.253 5.985.37 8.977.292zm-13.631-2.261c-.215-.058-.43-.097-.646-.156-.958-.273-2.033-.682-2.522-1.618-.626-1.228.273-2.359 1.369-2.846a9.128 9.128 0 0 1 1.955-.604c-.078 1.735-.195 3.49-.156 5.224zm5.026.682a38.517 38.517 0 0 1-3.677-.39v-.02c.078-1.87-.078-3.78-.156-5.652 1.31-.156 2.679-.156 3.911-.195-.176 2.066-.176 4.191-.078 6.257zm4.537.176c-.958-.02-1.897-.059-2.855-.098-.157 0-.313-.02-.47-.02.02-2.105-.058-4.249-.332-6.335 1.29 0 2.581.02 3.853.078-.06 2.125-.157 4.25-.196 6.375zm10.737-5.77c.45.058.88.136 1.31.312.802.331 1.623 1.052 1.564 1.988-.078 1.267-1.31 2.027-2.385 2.398-.157.058-.313.097-.47.156a80.332 80.332 0 0 1-.02-4.854zm-.959-.078c-.195 1.754-.332 3.528-.469 5.302a24.37 24.37 0 0 1-2.914.41c-.059-1.97-.254-3.938-.332-5.927 1.232.098 2.483.156 3.715.215zm-8.565-.488c1.369.059 2.757.156 4.126.234-.117 2.008-.313 4.035-.274 6.043-.274.02-.528.02-.802.04-.958.038-1.936.038-2.894.038a706.27 706.27 0 0 0-.156-6.355zM64.418 91.458c5.3-1.072 4.302-10.8-1.506-9.22-1.8.487-3.247 2.164-3.54 3.996-.137.507-.156 1.053-.078 1.637a4.31 4.31 0 0 0 5.124 3.587zm-3.227-6.706a3.516 3.516 0 0 1 2.347-1.189c2.483-.195 3.226 2.573 2.581 4.503-.724 2.184-3.56 2.749-4.967.838-.94-1.286-.822-2.943.039-4.152z"/>
            <path fill="#000" d="M63.264 87.442c.39-.155.586-.448.821-.78.254-.311.49-.643.724-.974.45-.604-.626-1.267-1.037-.604-.195.331-.39.643-.586.974-.176.312-.411.624-.392 1.014 0 .234.235.468.47.37zM74.548 82.238c-5.808-1.58-6.806 8.148-1.506 9.22a4.31 4.31 0 0 0 5.124-3.587 3.803 3.803 0 0 0-.078-1.637c-.294-1.832-1.74-3.509-3.54-3.996zm1.76 6.666c-1.388 1.91-4.244 1.346-4.967-.838-.646-1.93.097-4.698 2.581-4.503.939.078 1.76.527 2.347 1.19.84 1.208.958 2.865.04 4.151z"/>
            <path fill="#000" d="M73.668 85.103c-.41-.662-1.467 0-1.037.605.235.331.47.662.724.974.254.312.43.624.821.78.235.097.47-.136.47-.35 0-.39-.215-.683-.391-1.015a22.41 22.41 0 0 0-.587-.994zM74.157 92.784c-2.093-.098-4.224-.234-6.317-.078l-3.5-.117c-.9-.02-1.82-.059-2.739-.059-.684 0-1.466-.039-2.092.273-.9.448-1.467 1.755-.606 2.515.39.35.9.39 1.408.41 1.036.058 2.092.038 3.129.077 2.014.059 4.048.117 6.062.195 1.956.058 3.95.253 5.887.156 1.056-.039 2.347-.624 2.327-1.871-.02-1.716-2.405-1.443-3.56-1.501zm2.092 2.124c-.332.312-1.056.215-1.466.215-3.52-.04-7.04-.156-10.58-.254-.92-.02-1.82-.058-2.738-.078-.313 0-.88.059-1.174-.039-.43.059-.587-.214-.47-.818.196-.098.392-.156.607-.156.763-.098 1.584.02 2.347.039.919.02 1.819.02 2.738.02 2.875-.02 5.75 0 8.624-.04.411.04.822.059 1.213.098.234.02 1.916.058.9 1.013zM44.685 35.532c-.313-1.52-.47-3.06-.47-4.6 0-.488-.136-1.267.274-1.56.196-.136.665-.156.9-.214.43-.117.86-.254 1.29-.39 2.387-.838 4.616-2.125 6.61-3.665 1.976-1.5 3.717-3.294 4.694-5.594.94-2.203 1.057-4.679.548-7.018-1.056-4.834-4.967-8.42-9.407-10.312C43.981.016 37.938-.238 32.423.152c-3.5.253-7.138 1.15-10.072 3.06-3.755 2.067-6.806 5.459-7.9 9.67-1.155 4.385.077 8.907 3.285 12.124 3.403 3.411 8.155 4.854 12.868 5.341 1.35.136 2.797 0 4.127.253 1.114.195 1.916 1.56 2.66 2.34 1.662 1.773 3.539 3.47 6.003 3.937.802.137 1.467-.507 1.29-1.345zm-2.503-4.21c0 .974.058 1.93.156 2.904-1.212-.643-2.23-1.618-3.188-2.651-1.35-1.462-2.425-3.119-4.596-3.255-4.537-.293-9.035-.468-13.024-2.944-4.029-2.495-6.552-7.193-5.241-11.89C18.303 6.311 24.933 2.451 32.05 2.022c5.163-.311 10.776.078 15.587 2.047 4.146 1.696 7.862 4.951 8.84 9.474.488 2.242.195 4.659-1.037 6.608-1.271 2.027-3.325 3.528-5.32 4.776-1.153.721-2.385 1.384-3.676 1.852-1.056.39-2.503.429-3.403 1.13-.997.78-.86 2.281-.86 3.412z"/>
            <path fill="#000" d="M106.171 84.986c-.195-2.904-.587-5.984-1.682-8.713-.978-2.456-2.796-4.113-5.32-4.932-2.6-.838-5.514-.858-8.213-1.014a202.227 202.227 0 0 0-6.903-.272c-.157-1.404-.43-2.788-.607-4.172a74.632 74.632 0 0 0 5.163-.585c2.288-.331 4.381-1.072 5.71-3.08 1.33-2.007 1.663-4.58 1.937-6.92.332-2.924.332-5.906.195-8.85-.117-2.71-.234-5.497-.684-8.167-.43-2.573-2.014-4.445-4.537-5.146-2.288-.644-4.792-.546-7.177-.507-1.35-2.456-3.912-4.172-6.67-4.99.079-.936-.097-1.91-.175-2.827a82.271 82.271 0 0 1-.176-3.1c-.098-1.93-.196-3.86-.235-5.77 1.78-1.383 2.718-4.171 2.073-6.16-.43-1.344-1.447-2.3-2.816-2.67-1.29-.35-3.11-.448-4.303.195-1.134.604-1.994 1.637-2.444 2.827a3.894 3.894 0 0 0-.43 2.378c.097.701.39 1.364.782 1.93l.117.175.02.02c.039.058.078.097.117.155.274.312.567.605.9.858-.274 1.832-.02 3.88.039 5.712.058 2.007.02 4.074.234 6.081-1.193.273-2.346.741-3.402 1.346-1.82 1.052-3.15 2.358-4.107 4.152-3.208.195-6.376.838-8.86 2.807-4.263 3.391-3.266 9.064-2.894 13.82l.704 8.967c.176 2.261.509 4.484 2.699 5.673 2.269 1.247 5.222 1.481 7.744 1.774l1.056.116c-.117 1.248.04 2.632.06 3.86-.861.02-1.722.04-2.602.078-3.442.137-7.02.312-10.365 1.15-2.836.721-6.121 2.144-7.1 5.146-.527 1.58-.43 3.373-.488 5.01l-.176 5.517-.176 6.101c-.137.955-.293 1.91-.43 2.866-.176 1.11-.157 2.436.958 3.08 1.095.623 2.855.311 4.068.33l5.124.06c3.285.038 6.57.077 9.856.136 6.571.097 13.123.175 19.694.273 6.395.078 12.868.273 19.244-.234 1.134-.098 2.347-.293 3.187-1.15 1.076-1.072 1.037-2.651 1.135-4.055.254-3.08.371-6.18.156-9.279zm-35.71-72.943c-.079-1.033.43-2.066 1.27-2.67 1.272-.936 3.912-.878 4.93.448.723.916.547 2.222.058 3.197-.567 1.15-1.428 2.163-2.816 2.046-1.604-.136-3.305-1.286-3.442-3.021zm4.85 12.963c.02.721-.02 1.481.058 2.203a11.786 11.786 0 0 0-1.642-.098c-.196 0-.392.02-.587.02-.02-1.93-.254-3.88-.391-5.79l-.235-3.08c-.059-.604-.078-1.208-.156-1.793.9.331 1.858.448 2.796.253.137-.02.254-.058.372-.097-.118 1.754-.215 3.509-.235 5.282 0 1.053 0 2.067.02 3.1zm-1.721 4.347c1.682-.059 3.363.292 4.85 1.072a8.412 8.412 0 0 1 2.699 2.222c-3.892 0-7.784.078-11.676.254-1.29-.02-2.62-.059-3.97-.02 2.327-1.89 5.105-3.411 8.097-3.528zM60.154 63.29c-1.056-.214-2.17-.409-3.188-.799-1.153-.429-1.76-1.17-1.994-2.358-.49-2.418-.49-4.99-.724-7.447-.235-2.514-.508-5.049-.665-7.563-.156-2.28-.117-4.796 1.408-6.647 1.506-1.872 3.912-2.71 6.22-3.1 2.894-.487 5.905-.546 8.82-.643 5.964-.175 11.91-.078 17.874.175a.511.511 0 0 0 .352-.117c1.37.137 2.797.43 3.853 1.287.782.643 1.095 1.579 1.252 2.554.195 1.306.234 2.65.332 3.957.196 2.573.391 5.146.41 7.719.02 2.515-.078 5.068-.508 7.544-.352 2.047-1.036 4.074-3.148 4.854-2.269.838-4.948.896-7.354 1.033-2.523.156-5.045.234-7.568.312-5.144.195-10.326.234-15.372-.76zm21.708 4.328c-2.738-.137-5.515-.02-8.253-.02-2.581 0-5.202-.117-7.783.059v-.02c-.04-.467-.059-.955-.118-1.423 1.936.117 3.873.156 5.809.117 3.461-.039 6.962-.117 10.443-.331-.04.546-.078 1.092-.098 1.618zm.04 2.417c-.255 0-.49-.02-.744-.02-5.026-.077-10.052-.155-15.078-.097-.04-.429-.098-.877-.137-1.306 2.542.215 5.143.176 7.686.234 2.738.078 5.495.253 8.233.195 0 .331 0 .663.04.994zm6.101 27.349c-.665 0-1.35 0-2.014-.02l-4.694-.058c.02-.74.04-1.481.059-2.242 2.268.234 4.537.507 6.825.546-.078.604-.117 1.19-.176 1.774zm.254-2.963c-2.288-.195-4.615-.097-6.903 0 .02-1.17.039-2.34.078-3.509 2.288.41 4.694.43 7.02.527-.058.994-.117 1.988-.195 2.982zm.333-5.79a41.61 41.61 0 0 1-.079 1.56c-2.307-.253-4.79-.41-7.08.039 0-.253.02-.487.02-.74l.06-2.75c2.346.254 4.751.469 7.118.41 0 .487-.02.994-.04 1.482zm.097-2.514c-2.366-.156-4.771-.136-7.138-.214 0-.351.02-.702.02-1.053 0-.215-.078-1.053.039-1.15.156-.117.508-.04.704-.059a47.34 47.34 0 0 1 2.366-.058c.94 0 1.878.097 2.817 0 .352-.04.743-.02.997.214.293.273.41 2.34.195 2.32zm3.56 3.645c-.078 2.534-.098 5.088-.254 7.622-.841 0-1.682.02-2.523.02.254-3.626.47-7.252.528-10.897.02-.897.098-1.833.02-2.71-.04-.429-.098-.838-.49-1.11-.508-.352-1.349-.254-1.916-.274a65.063 65.063 0 0 0-2.758-.058c-.919 0-1.838.02-2.757.078-.528.039-1.154.02-1.526.468-.352.428-.273 1.091-.293 1.598a123.5 123.5 0 0 0-.078 2.69c-.098 3.372-.04 6.764.156 10.137-4.028-.059-8.037-.117-12.066-.156l-12.556-.176c.392-3.898.235-7.817.587-11.715.117-1.15.215-2.32.47-3.45.273-1.15.88-1.755 2.014-2.067 2.092-.565 4.498-.429 6.65-.429 4.712-.039 9.445.078 14.158.234 2.386.078 4.772.195 7.158.39 1.154.098 2.308.195 3.461.331.47.059 1.017.02 1.448.195.684.273.645.8.684 1.462.196 2.554-.039 5.205-.117 7.817zm11.538-.702a95.543 95.543 0 0 1-.195 4.094c-.059.897.156 3.119-.783 3.587-1.017.507-2.542.37-3.637.429-1.428.078-2.836.136-4.263.156-.411.019-.822.019-1.233.019 0-5.068.587-10.195.274-15.263-.058-.858-.058-1.891-.723-2.534-.665-.644-1.702-.644-2.562-.741a112.953 112.953 0 0 0-8.097-.565c-5.28-.215-10.6-.273-15.88-.254-2.464.02-5.045-.078-7.49.293-1.897.292-3.286 1.228-3.735 3.138-1.213 5.049-.548 10.39-.509 15.556-2.23-.04-4.44-.059-6.669-.098-.782-.02-1.584-.02-2.366-.039-.098 0-.665.059-.92.04.099-.098.079-.605.079-.683.176-1.54.352-3.08.45-4.62.098-1.969.117-3.918.039-5.867.137-1.97.254-3.958.372-5.926.058-1.209.039-2.554.762-3.587.724-1.033 1.956-1.657 3.11-2.125 2.6-1.033 5.476-1.306 8.253-1.52 5.867-.449 11.773-.332 17.64-.293 5.886.04 11.793.176 17.66.644 2.268.175 4.79.272 6.766 1.52 2.132 1.326 2.719 4.055 3.149 6.355.47 2.71.567 5.516.508 8.284zM23.994 18.573c3.95.04 7.881.331 11.832.37 3.95.04 7.9.078 11.831 0 .9-.019.9-1.384 0-1.403-3.95-.078-7.9-.039-11.831 0-3.95.039-7.901.331-11.832.37-.41.02-.41.663 0 .663zM47.677 22.667c-3.95-.078-7.9-.04-11.832 0-3.95.039-7.9.331-11.832.37-.41 0-.41.643 0 .643 3.95.04 7.882.332 11.832.37 3.95.04 7.901.079 11.832 0 .9-.019.9-1.364 0-1.383z"/>
        </g>
    </g>
</svg>
