<svg xmlns="http://www.w3.org/2000/svg" width="50" height="50" viewBox="0 0 50 50">
    <g fill="#FFF" fill-rule="nonzero">
        <path d="M40.168 31.667l3.025-4.538a.833.833 0 0 0-.693-1.296h-8.333a.835.835 0 0 0-.64.3l-3.918 4.7h-6.276V17.5a4.171 4.171 0 0 0-4.166-4.167h-15A4.171 4.171 0 0 0 0 17.5v28.333A4.171 4.171 0 0 0 4.167 50h15a4.171 4.171 0 0 0 4.166-4.167V32.5h6.276l3.918 4.7c.158.19.392.3.64.3H42.5a.834.834 0 0 0 .693-1.295l-3.025-4.538zM21.667 45.833c0 1.379-1.122 2.5-2.5 2.5h-15a2.503 2.503 0 0 1-2.5-2.5V45h20v.833zm0-15h-1.71c-.419-4.205-3.977-7.5-8.29-7.5-4.595 0-8.334 3.739-8.334 8.334S7.072 40 11.667 40c4.314 0 7.871-3.295 8.29-7.5h1.71v10.833h-20V20h20v10.833zM14.013 32.5a2.497 2.497 0 0 1-2.346 1.667 2.503 2.503 0 0 1-2.5-2.5c0-1.379 1.121-2.5 2.5-2.5 1.085 0 2.001.699 2.346 1.666h-2.346V32.5h2.346zm-2.346-5A4.171 4.171 0 0 0 7.5 31.667a4.171 4.171 0 0 0 4.167 4.166 4.174 4.174 0 0 0 4.082-3.333h2.527c-.413 3.283-3.216 5.833-6.61 5.833A6.674 6.674 0 0 1 5 31.667 6.674 6.674 0 0 1 11.667 25c3.393 0 6.196 2.55 6.609 5.833h-2.527a4.174 4.174 0 0 0-4.082-3.333zm10-9.167h-20V17.5c0-1.378 1.121-2.5 2.5-2.5h15c1.378 0 2.5 1.122 2.5 2.5v.833zm12.89 17.5l-3.473-4.166 3.473-4.167h6.386l-2.47 3.704a.833.833 0 0 0 0 .924l2.47 3.705h-6.386z"/>
        <path d="M44.167 0h-15A4.171 4.171 0 0 0 25 4.167V12.5a4.171 4.171 0 0 0 4.167 4.167h4.166v5a.831.831 0 0 0 .834.833c.198 0 .394-.07.549-.206l6.43-5.627h3.02a4.171 4.171 0 0 0 4.167-4.167V4.167A4.171 4.171 0 0 0 44.167 0zm2.5 12.5c0 1.378-1.122 2.5-2.5 2.5h-3.334a.838.838 0 0 0-.549.206L35 19.83v-3.997a.83.83 0 0 0-.833-.833h-5a2.503 2.503 0 0 1-2.5-2.5V4.167c0-1.379 1.121-2.5 2.5-2.5h15c1.378 0 2.5 1.121 2.5 2.5V12.5z"/>
        <path d="M42.256 4.41a3.195 3.195 0 0 0-4.512 0l-1.077 1.078-1.078-1.077a3.195 3.195 0 0 0-4.511 0 3.193 3.193 0 0 0 0 4.511l5 5a.831.831 0 0 0 1.178 0l5-5a3.193 3.193 0 0 0 0-4.511zm-1.178 3.334l-4.411 4.411-4.411-4.41a1.525 1.525 0 0 1 0-2.156 1.52 1.52 0 0 1 1.077-.445c.39 0 .781.149 1.078.445l1.666 1.667a.832.832 0 0 0 1.179 0l1.666-1.667a1.525 1.525 0 0 1 2.156 0c.594.594.594 1.561 0 2.155zM45 25.833h5V27.5h-5zM45 30.833h5V32.5h-5zM45 35.833h5V37.5h-5z"/>
    </g>
</svg>
