<svg xmlns="http://www.w3.org/2000/svg" width="50" height="50" viewBox="0 0 50 50">
    <path fill="#FFF" fill-rule="nonzero" d="M45.833 40.075v-11.86a3.33 3.33 0 0 0 2.5-3.215 3.33 3.33 0 0 0-2.5-3.215V9.925C48.194 9.525 50 7.472 50 5c0-2.757-2.242-5-5-5-2.472 0-4.526 1.806-4.925 4.167h-11.86A3.33 3.33 0 0 0 25 1.667a3.33 3.33 0 0 0-3.215 2.5H9.925C9.525 1.806 7.472 0 5 0 2.243 0 0 2.243 0 5c0 2.473 1.806 4.526 4.167 4.925v11.86A3.33 3.33 0 0 0 1.667 25a3.33 3.33 0 0 0 2.5 3.215v11.86C1.806 40.475 0 42.528 0 45c0 2.758 2.243 5 5 5 2.473 0 4.526-1.806 4.925-4.167h11.86a3.33 3.33 0 0 0 3.215 2.5 3.33 3.33 0 0 0 3.215-2.5h11.86A5.003 5.003 0 0 0 45 50c2.758 0 5-2.242 5-5 0-2.472-1.806-4.526-4.167-4.925zM46.667 25a1.664 1.664 0 1 1-3.025.96c-.008-.01-.017-.018-.024-.03a1.7 1.7 0 0 1-.135-.247c-.005-.013-.014-.024-.019-.036a1.73 1.73 0 0 1-.079-.255c-.005-.02-.014-.039-.018-.06a1.673 1.673 0 0 1 0-.665c.004-.021.013-.04.018-.06.02-.087.045-.174.08-.255.004-.012.012-.023.018-.035.04-.087.083-.171.135-.249.007-.01.017-.018.024-.029a1.666 1.666 0 0 1 3.025.961zM45 1.667A3.337 3.337 0 0 1 48.333 5 3.337 3.337 0 0 1 45 8.333 3.337 3.337 0 0 1 41.667 5 3.337 3.337 0 0 1 45 1.667zM28.058 6.322c.021-.05.035-.101.053-.151.041-.112.087-.221.117-.338H40.07c.003.02.01.039.014.059.041.227.096.449.167.664.012.039.028.077.042.115.07.195.15.384.243.567.016.031.029.064.046.094a4.9 4.9 0 0 0 .354.568c.028.04.058.078.087.117A5.027 5.027 0 0 0 42.1 9.065c.18.131.37.25.567.355.031.017.064.03.095.046.183.092.372.172.567.242.038.015.076.03.115.043a4.9 4.9 0 0 0 .664.167c.02.003.039.01.059.014v11.842c-.117.03-.226.075-.337.117-.05.02-.102.032-.15.052a3.306 3.306 0 0 0-.365.194l-15.45-15.45c.07-.119.138-.238.193-.364zm14.069 16.985c-.012.02-.02.044-.033.066-.016.028-.028.057-.043.085-.064.122-.12.247-.169.375l-.045.132c-.022.067-.045.133-.063.2h-5.226a3.336 3.336 0 0 0-2.449-2.41c-.368-2.036-2.234-3.596-4.391-3.41a4.973 4.973 0 0 0-3.875-3.273V8.219c.045-.011.09-.026.135-.039.078-.023.154-.047.229-.077.026-.01.052-.015.077-.025.008-.004.016-.005.023-.009.078-.032.15-.074.225-.112.035-.018.071-.033.106-.053.021-.011.044-.02.064-.032l15.435 15.435zm-13.794 3.36h-1.548a3.33 3.33 0 0 1 3.215-2.5V22.5c-2.473 0-4.526 1.806-4.925 4.167h-2.66a4.174 4.174 0 0 0-4.082-3.334V25c1.085 0 2.002.7 2.347 1.667h-4.013c-.92 0-1.667-.748-1.667-1.667 0-.92.748-1.667 1.667-1.667.46 0 .833-.373.833-.833 0-1.378 1.122-2.5 2.5-2.5.2 0 .416.034.677.108a.831.831 0 0 0 .584-.065 2.5 2.5 0 0 1 2.072 2.457H25c0-1.878-1.258-3.452-2.97-3.97A3.3 3.3 0 0 1 25 16.667a3.316 3.316 0 0 1 3.275 2.778.833.833 0 0 0 1.048.663c.261-.074.476-.108.677-.108 1.378 0 2.5 1.122 2.5 2.5 0 .46.373.833.833.833.92 0 1.667.748 1.667 1.667 0 .92-.748 1.667-1.667 1.667h-1.666a.834.834 0 0 0-.834.833v2.818l-1.666.834V27.5a.834.834 0 0 0-.834-.833zM25 3.333c.92 0 1.667.748 1.667 1.667 0 .477-.205.905-.526 1.21-.623.583-1.66.583-2.281 0A1.658 1.658 0 0 1 23.333 5c0-.92.748-1.667 1.667-1.667zm-1.693 4.539c.02.012.043.02.064.031.035.02.072.035.107.054.074.038.146.08.224.111.007.004.015.005.023.009.025.01.052.016.077.025.076.03.152.054.229.077.045.014.09.028.136.04v6.852a4.973 4.973 0 0 0-3.875 3.273c-2.157-.184-4.024 1.374-4.392 3.41a3.336 3.336 0 0 0-2.45 2.411H8.226c-.018-.068-.04-.134-.063-.2a3.282 3.282 0 0 0-.214-.507c-.015-.029-.027-.058-.043-.086-.012-.021-.02-.044-.033-.066L23.308 7.872zm-14.33.146a4.972 4.972 0 0 0 .442-.685c.016-.031.03-.064.045-.095.093-.183.173-.372.243-.567.014-.038.029-.076.042-.115a4.9 4.9 0 0 0 .167-.664c.003-.02.01-.039.014-.059h11.842c.03.117.076.226.117.337.02.05.032.103.053.15.055.127.123.247.193.365l-15.45 15.45a3.306 3.306 0 0 0-.364-.193c-.05-.021-.101-.035-.151-.053-.11-.041-.22-.087-.337-.117V9.93c.02-.003.039-.01.059-.014.227-.041.449-.096.664-.167.039-.012.077-.028.115-.042.195-.07.384-.15.567-.243.031-.016.064-.029.094-.046a4.9 4.9 0 0 0 .568-.354c.04-.028.078-.058.117-.087.362-.275.685-.598.96-.96zM1.667 5A3.337 3.337 0 0 1 5 1.667 3.337 3.337 0 0 1 8.333 5 3.337 3.337 0 0 1 5 8.333 3.337 3.337 0 0 1 1.667 5zm1.666 20a1.664 1.664 0 1 1 3.025-.96c.008.01.017.018.024.03a1.7 1.7 0 0 1 .135.247c.005.013.014.024.019.036.034.081.057.168.079.255.005.02.014.039.018.06a1.673 1.673 0 0 1 0 .665c-.004.021-.013.04-.018.06-.02.087-.045.174-.08.255-.004.012-.013.023-.018.035-.04.087-.083.171-.135.249-.007.01-.017.018-.024.029A1.666 1.666 0 0 1 3.333 25zM5 48.333A3.337 3.337 0 0 1 1.667 45 3.337 3.337 0 0 1 5 41.667 3.337 3.337 0 0 1 8.333 45 3.337 3.337 0 0 1 5 48.333zm16.942-4.655c-.02.05-.034.102-.052.152-.042.11-.088.22-.117.337H9.93c-.003-.02-.011-.039-.014-.059a4.869 4.869 0 0 0-.167-.664c-.012-.039-.028-.077-.043-.115a4.88 4.88 0 0 0-.242-.567l-.046-.095a4.9 4.9 0 0 0-.354-.567c-.028-.04-.058-.078-.088-.117a5.027 5.027 0 0 0-1.076-1.047c-.181-.13-.37-.25-.568-.354-.03-.017-.063-.03-.094-.046a5.028 5.028 0 0 0-.567-.243c-.039-.014-.076-.029-.115-.042a4.9 4.9 0 0 0-.665-.167c-.02-.003-.039-.01-.059-.015V28.227c.117-.03.226-.075.337-.117.05-.02.103-.032.15-.052.127-.055.247-.124.365-.194l15.45 15.45c-.07.118-.138.238-.193.364zM7.872 26.694c.013-.021.022-.045.034-.066.016-.029.028-.058.043-.086.064-.122.12-.247.168-.375.017-.044.031-.088.046-.132.022-.067.045-.133.063-.2h5.226a3.33 3.33 0 0 0 3.215 2.5h7.5v13.44c-.069.017-.135.04-.201.063a3.282 3.282 0 0 0-.508.213c-.028.015-.057.027-.085.043-.022.013-.046.021-.067.033L7.872 26.694zM25 46.667c-.92 0-1.667-.748-1.667-1.667 0-.477.205-.905.526-1.21.623-.583 1.66-.583 2.281 0 .322.305.527.733.527 1.21 0 .92-.748 1.667-1.667 1.667zm1.694-4.54c-.021-.012-.045-.021-.066-.033-.029-.016-.058-.028-.086-.043a3.282 3.282 0 0 0-.375-.169l-.132-.045c-.067-.022-.133-.045-.2-.063v-13.44H27.5V32.5a.836.836 0 0 0 .832.833c.128 0 .255-.029.373-.087l3.333-1.667a.834.834 0 0 0 .461-.746v-2.5h.833a3.33 3.33 0 0 0 3.215-2.5h5.226c.018.069.041.135.063.201l.045.132c.049.128.105.253.169.375.015.028.027.057.043.086.013.022.021.046.033.067L26.694 42.127zm14.33-.145a4.972 4.972 0 0 0-.442.685c-.017.031-.03.064-.046.095a5.028 5.028 0 0 0-.243.567c-.014.038-.029.076-.042.115a4.9 4.9 0 0 0-.167.664c-.003.02-.01.039-.014.059H28.228c-.03-.117-.076-.226-.117-.337-.02-.05-.032-.102-.053-.15a3.306 3.306 0 0 0-.193-.365l15.45-15.45c.118.07.238.138.364.193.05.021.101.035.151.053.11.041.22.087.337.117V40.07c-.02.003-.039.01-.059.014-.227.041-.449.096-.664.167-.039.012-.077.028-.115.042a4.88 4.88 0 0 0-.567.243c-.031.016-.064.029-.095.046a4.9 4.9 0 0 0-.567.354c-.04.028-.078.058-.117.087a5.027 5.027 0 0 0-.96.96zM45 48.334A3.337 3.337 0 0 1 41.667 45 3.337 3.337 0 0 1 45 41.667 3.337 3.337 0 0 1 48.333 45 3.337 3.337 0 0 1 45 48.333z"/>
</svg>
