<svg xmlns="http://www.w3.org/2000/svg" width="50" height="50" viewBox="0 0 50 50">
    <g fill="#FFF" fill-rule="nonzero">
        <path d="M18.09 20.59l-1.18-1.18-1.133 1.134a6.645 6.645 0 0 0-4.944-2.21A6.674 6.674 0 0 0 4.167 25a6.674 6.674 0 0 0 6.666 6.667A6.674 6.674 0 0 0 17.5 25a6.615 6.615 0 0 0-.754-3.067l1.343-1.344zM10.832 30c-2.757 0-5-2.242-5-5s2.243-5 5-5c1.503 0 2.85.67 3.767 1.722l-3.767 3.766-1.91-1.91-1.179 1.178 2.5 2.5a.831.831 0 0 0 1.178 0l4.067-4.067c.22.563.344 1.172.344 1.811 0 2.758-2.242 5-5 5z"/>
        <path d="M32.5 31.667h15c1.378 0 2.5-1.122 2.5-2.5v-8.334c0-1.378-1.122-2.5-2.5-2.5h-15a2.503 2.503 0 0 0-2.5 2.5v3.334h-8.333v-5.834h5c.46 0 .833-.373.833-.833V9.167h4.21c.418 4.205 3.977 7.5 8.29 7.5 4.595 0 8.333-3.739 8.333-8.334S44.595 0 40 0c-4.314 0-7.872 3.295-8.29 7.5h-5.043a.834.834 0 0 0-.834.833v8.334h-4.166v-5.834A4.171 4.171 0 0 0 17.5 6.667H4.167A4.171 4.171 0 0 0 0 10.833V39.167a4.171 4.171 0 0 0 4.167 4.166H17.5a4.171 4.171 0 0 0 4.167-4.166v-5h4.166V42.5c0 .46.374.833.834.833H30v2.5A4.171 4.171 0 0 0 34.167 50h11.666A4.171 4.171 0 0 0 50 45.833v-10l-.002-.01c-.001-.09-.015-.181-.046-.27-.004-.009-.01-.015-.014-.024-.01-.026-.026-.047-.039-.072a.826.826 0 0 0-.119-.176.804.804 0 0 0-.238-.18c-.028-.015-.053-.03-.082-.042a.826.826 0 0 0-.293-.059H30.833c-.103 0-.2.024-.294.06-.029.01-.054.026-.082.04a.804.804 0 0 0-.169.114c-.024.022-.047.043-.069.067a.826.826 0 0 0-.119.176c-.013.025-.03.045-.04.072-.002.008-.01.015-.012.024a.816.816 0 0 0-.046.27l-.002.01v5.834h-2.5v-8.334a.834.834 0 0 0-.833-.833h-5v-6.667H30v3.334c0 1.378 1.122 2.5 2.5 2.5zm-.833-10.834c0-.459.374-.833.833-.833h15c.46 0 .833.374.833.833V22.5H31.667v-1.667zm0 3.334h16.666v5c0 .459-.374.833-.833.833h-15a.835.835 0 0 1-.833-.833v-5zM40 1.667a6.674 6.674 0 0 1 6.667 6.666A6.674 6.674 0 0 1 40 15a6.674 6.674 0 0 1-6.667-6.667A6.674 6.674 0 0 1 40 1.667zm-20 37.5c0 1.378-1.122 2.5-2.5 2.5H4.167a2.503 2.503 0 0 1-2.5-2.5v-.834H20v.834zm0-2.5H1.667V13.333H20v23.334zm0-25H1.667v-.834c0-1.378 1.121-2.5 2.5-2.5H17.5c1.378 0 2.5 1.122 2.5 2.5v.834zm26.833 25L40 42.257l-6.833-5.59h13.666zm-15.166.925l7.805 6.386a.829.829 0 0 0 1.056 0l7.805-6.386v8.241c0 1.379-1.121 2.5-2.5 2.5H34.167a2.503 2.503 0 0 1-2.5-2.5v-8.241z"/>
        <path d="M39.22 6.374a.835.835 0 0 1 1.614.292H42.5c0-1.084-.7-2.001-1.667-2.346v-.987h-1.666v.987A2.497 2.497 0 0 0 37.5 6.667c0 .22.087.433.244.589l3.037 3.037A.835.835 0 0 1 39.167 10H37.5c0 1.085.7 2.002 1.667 2.347v.986h1.666v-.986A2.497 2.497 0 0 0 42.5 10a.831.831 0 0 0-.244-.59l-3.037-3.036z"/>
    </g>
</svg>
