<svg xmlns="http://www.w3.org/2000/svg" width="96" height="90" viewBox="0 0 96 90">
    <g fill="none" fill-rule="nonzero">
        <g fill="#5BD0FC">
            <path d="M19.925 1.728c-4.691.179-9.812-.476-14.038 2.135C.207 7.373.986 14.552.974 20.324c-.006 2.76.247 5.394.677 8.113.272 1.721.201 3.61.784 5.27.903 2.57 4.042 3.621 6.569 3.716-1.27 1.6-2.086 3.67-3.3 5.348-.626.865-1.24 1.706-2.035 2.41-.433.384-.894.716-1.243 1.18 2.214 1.338 5.985.359 8.029-.852a39.346 39.346 0 0 0 3.982-2.703c.616-.477 1.149-.975 1.66-1.572.497-.58.8-1.507 1.32-2.001.616-.587 1.29-.33 2.176-.315 2.864.046 5.714.169 8.581.169 5.597 0 11.187-.105 16.78-.318 4.747-.18 9.482.688 14.236.654 3.725-.027 7.285-2.353 9.28-5.442 1.44-2.232 2.002-5.325 2.34-7.894.376-2.845.707-5.784.848-8.65.095-1.95.16-3.917.023-5.866-.137-1.946.213-5-.94-6.66-.56-.805-1.66-.994-2.533-1.168-3.854-.77-7.794-1.013-11.682-1.567-4.439-.633-8.917-.783-13.367-1.302C39.171.41 35.155.312 31.144.308c-2.173-.003-4.31.108-6.478.245-1.476.093-3.176.071-4.741 1.175zM31.998 52.209c-2.678 1.119-4.859 3.383-6.088 6.044-1.094 2.37-.994 5.782-1.322 8.326-.316 2.456-.455 4.955-.557 7.43-.12 2.882-.4 5.898-.088 8.778.117 1.08.22 2.399 1.287 2.952.637.331 1.64.404 2.347.492 1.815.227 3.665.286 5.489.438 6.018.503 12.01.669 18.05.975 5.907.3 11.8.81 17.704 1.132 3.402.185 7.362.57 10.743-.043 2.038-.37 3.99-.526 6.05-.792 1.993-.258 3.917-.793 5.368-2.261 1.187-1.2 2.22-3.21 2.862-4.762.814-1.965.598-4.324.78-6.394.291-3.33.481-6.533.226-9.871-.261-3.427-.454-9.892-4.56-11.28-.816-.276-2.23-.148-2.796-.93-.675-.932.118-2.256.77-2.972.774-.847 1.416-1.565 2.047-2.566.775-1.23 2.086-2.546 2.472-3.97-.654-.388-1.737-.132-2.425-.054-2.25.257-4.684 1.096-6.682 2.1-1.922.967-3.306 2.36-4.493 4.16-.503.763-.82 1.681-1.366 2.405.167-.223-4.67-.82-5.066-.814-1.74.026-3.606.353-5.33.052-4.334-.757-8.952.34-13.382-.206-2.121-.262-3.918-.41-6.07-.268-2.114.14-4.224.327-6.333.521-2.887.266-6.213-.006-9.637 1.378z"/>
        </g>
        <path fill="#CBE580" d="M45.398 8.183c-6.045-.042-12.13-.425-18.174-.06-2.432.146-4.883.276-7.31.49-1.507.134-3.571.119-4.797 1.134-.803.665-.922 2.4-.97 3.402-.08 1.65.127 3.238.255 4.876.306 3.923.597 7.889 1.29 11.768.198 1.113.311 2.32 1.116 3.188.596.643 1.428.443 2.208.385 1.26-.093 2.525-.055 3.785-.167 5.568-.493 11.18-.179 16.76-.4 2.94-.118 5.93-.466 8.87-.28 1.41.09 2.84.325 4.243.022 2.95-.638 2.186-4.289 1.97-6.506-.106-1.08-.123-2.138-.128-3.22-.006-1.293-.216-2.519-.43-3.79-.334-1.998-.467-3.98-.625-5.994-.094-1.19.155-3.42-.724-4.37-.557-.601-1.511-.728-2.271-.782-1.628-.114-3.351-.189-5.068.304z"/>
        <path fill="#FFF" d="M29.512 12.54c-.059 3.483-.461 7.095-.099 10.568.249 2.376.693 4.764.711 7.157.006.76 0 1.537.13 2.287.077.448.022.422.381.563.708.279 1.62.12 2.364.212 1.31.16 2.608.118 3.917.195.519.03 1.476.145 1.98-.098.386-.186.261-.102.341-.497.313-1.54.153-3.24.144-4.8-.01-1.784.004-3.568 0-5.352-.008-3.473.417-6.912.423-10.376.002-1.22.105-2.43.137-3.636-.984-.281-2.168-.128-3.181-.101-1.733.045-3.472 0-5.202.117-.495.034-1.26-.013-1.708.27-.691.438-.34 2.529-.338 3.49z"/>
        <g fill="#CBE580">
            <path d="M34.917 17.694c-1.534.354-3.179 1.882-3.134 3.572.032 1.2.845 2.287 2.038 2.43 1.583.19 3.044-.975 3.586-2.406.317-.837.291-1.84-.361-2.52-.683-.712-1.254-.985-2.129-1.076zM42.72 67.029c0 2.144-.097 4.294.036 6.433.041.663.06 1.33.11 1.992.018.25-.034 1.113.108 1.302.26.347 1.347.378 1.72.442.93.16 1.965.262 2.91.227.285-1.655-.021-3.306-.094-4.956-.07-1.614-.033-3.213-.044-4.827-.005-.783.124-1.41-.758-1.376-.658.026-1.32.123-1.978.167-.537.037-1.168-.07-2.01.596z"/>
        </g>
        <path fill="#ED6D66" d="M50.662 59.72c-.084 3.623.226 7.256.376 10.874.058 1.399-.022 2.79-.05 4.189-.014.704-.1 1.797.19 2.473.284-.164.61-.104.93-.118.97-.041 1.872.185 2.84.205 1.014.02 1.994-.144 2.994-.152-.308-1.42-.226-2.959-.266-4.42-.06-2.24.171-4.442.179-6.67.007-2.205-.319-4.44-.809-6.567-2.188-.036-4.381.094-6.384.186z"/>
        <path fill="#F9D889" d="M61.05 64.686c-.02 2.612.067 5.19.212 7.792.088 1.585.17 3.174.245 4.751.454.217.917.013 1.384-.026.932-.08 1.868.025 2.802-.078.597-.065 1.362-.267 1.965-.211.274-.644.07-1.628.112-2.301.059-.969.106-1.936.178-2.904.132-1.765-.09-3.518-.263-5.273-.073-.737.23-2.022-.577-2.302-.652-.225-1.73-.096-2.418-.089-.72.008-1.433.126-2.15.179-.403.03-.92-.036-1.49.462z"/>
        <path fill="#F0F2FA" d="M70.356 58.876c-.017.4.076.751.134 1.14.11.728.028 1.471.01 2.203-.024 1.037.054 2.081.16 3.112.218 2.12.319 4.23.414 6.361.065 1.452.272 2.894.317 4.345.029.924.22.944 1.216.883 1.13-.069 2.34-.254 3.43-.557.446-.125.63-.159.713-.61.323-1.783-.04-3.798-.048-5.601-.006-1.582-.092-3.162-.024-4.745.068-1.595.03-3.194.094-4.788.035-.867-.21-1.785-.114-2.64-.923-.373-2.44-.11-3.38-.028-.934.082-1.767.2-2.922.925z"/>
        <path fill="#000" d="M58.708 39.903c3.095-.3 6.374-.802 8.724-2.832 2.219-1.917 3.214-4.863 3.92-7.703 1.36-5.479 2-11.139 1.84-16.78a59.352 59.352 0 0 0-.075-1.737c-.116-2.014-.358-4.097-1.405-5.823-1.852-3.059-5.78-2.874-8.936-3.207-4.2-.443-8.407-.818-12.62-1.11C41.723.128 33.263-.122 24.81.091c-1.605.04-3.21.097-4.814.171-3.855.18-7.729.453-11.474 1.378-3.09.762-5.749 2.204-7.015 5.25-1.511 3.634-1.535 7.89-1.5 11.762.04 4.359.486 8.703 1.054 13.02.152 1.152.318 2.321.808 3.374.971 2.089 3.286 2.892 5.426 3.21C5.441 41.21 3.16 43.821.573 46.19c-.525.48-.301 1.551.446 1.68 5.972 1.031 12.388-1.428 15.815-6.476.246-.362.493-.751.881-.956.294-.156.636-.186.968-.212 13.33-1.047 26.705.97 40.025-.322zm-40.752-1.596c-1.242.118-1.91.575-2.568 1.608a13.45 13.45 0 0 1-1.96 2.446c-2.613 2.549-6.234 3.976-9.86 3.82 1.163-1.129 8.121-8.367 5.936-9.639-.367-.213-.803-.264-1.226-.31-1.24-.131-2.563-.277-3.527-1.067-1.228-1.007-1.506-2.74-1.7-4.313-.475-3.868-.95-7.746-1.059-11.645-.103-3.646-.166-7.802 1.266-11.227 1.117-2.672 3.623-3.712 6.304-4.245 6.398-1.273 12.957-1.496 19.48-1.49 12.44.013 24.88.848 37.21 2.498.893.119 1.827.26 2.55.795.979.726 1.347 2.005 1.546 3.205.425 2.57.352 5.192.234 7.793l-.052 1.072c-.208 4.024-.578 8.057-1.663 11.934-.664 2.374-1.684 4.796-3.664 6.273-2.008 1.498-4.653 1.773-7.156 1.941-6.874.463-13.769.522-20.656.414-6.523-.1-12.946-.483-19.435.137zM95.502 71.348c-.04-4.359-.485-8.703-1.053-13.02-.152-1.152-.318-2.321-.808-3.374-.971-2.089-3.286-2.892-5.426-3.21 1.854-2.953 4.135-5.564 6.722-7.933.525-.48.301-1.551-.446-1.68-5.972-1.032-12.388 1.428-15.815 6.476-.246.362-.493.751-.881.956-.294.155-.636.186-.968.212-13.33 1.047-26.706-.97-40.025.322-3.095.3-6.374.802-8.724 2.832-2.219 1.917-3.214 4.863-3.92 7.704-1.361 5.478-2 11.138-1.84 16.779.016.579.041 1.158.074 1.737.117 2.014.36 4.097 1.405 5.824 1.853 3.058 5.781 2.873 8.937 3.206 4.2.443 8.406.818 12.62 1.11 8.433.583 16.893.833 25.346.62 1.605-.04 3.21-.096 4.814-.171 3.855-.18 7.729-.453 11.474-1.377 3.09-.763 5.749-2.205 7.015-5.25 1.512-3.635 1.535-7.89 1.5-11.763zm-3.25 10.672c-1.117 2.672-3.623 3.711-6.304 4.245-6.397 1.272-12.957 1.496-19.48 1.49a282.785 282.785 0 0 1-37.21-2.498c-.893-.12-1.827-.26-2.55-.795-.979-.726-1.347-2.006-1.546-3.206-.424-2.569-.352-5.191-.233-7.792.016-.357.033-.715.052-1.072.208-4.024.578-8.058 1.662-11.935.665-2.374 1.684-4.795 3.664-6.272 2.008-1.498 4.653-1.773 7.156-1.941 6.874-.464 13.77-.522 20.656-.415 6.524.102 12.946.485 19.435-.135 1.242-.119 1.911-.576 2.568-1.609a13.463 13.463 0 0 1 1.96-2.446c2.613-2.548 6.234-3.975 9.86-3.82-1.163 1.13-8.121 8.367-5.936 9.639.367.213.803.265 1.226.31 1.24.131 2.563.277 3.527 1.067 1.228 1.007 1.505 2.74 1.699 4.313.476 3.869.95 7.746 1.06 11.645.103 3.646.166 7.802-1.266 11.227z"/>
        <path fill="#000" d="M46.53 33.849c1.325-.014 2.65-.033 3.976-.056 1.079-.019 2.332.1 3.307-.453.832-.47 1.212-1.285 1.364-2.195.22-1.328.299-2.702.372-4.044a77.278 77.278 0 0 0-.75-15.528c-.164-1.112-.154-2.79-1.084-3.595-.905-.784-2.447-.589-3.552-.615-2.952-.069-5.894.053-8.841.213-.72.039-1.44.078-2.16.119-1.6-.007-3.203 0-4.806.028-5.261.093-10.647.12-15.867.827-1.973.267-4.555.466-4.992 2.826-.43 2.325-.02 4.79.144 7.121.186 2.661.388 5.323.534 7.987.067 1.233.133 2.467.206 3.7.065 1.094.18 2.219 1.19 2.869.81.52 1.8.533 2.73.552 1.325.027 2.65.043 3.975.073 2.716.062 5.433.105 8.15.13 5.369.048 10.735.097 16.104.04zm-5.901-21.96c1.924-.051 3.852 0 5.778.001.017.582.26 1.145.694 1.575.313.31.707.54 1.126.678.368.123 1.18.068 1.42.306.354.354.262 1.452.293 1.913a93.893 93.893 0 0 1 .16 8.578c-.007.241.081.731-.031.954.135.108.118.153-.053.136-.14.015-.28.043-.416.082-.88.243-1.672.838-2.2 1.575a4.194 4.194 0 0 0-.417.734c-.066.147-.151.583-.248.676-.22.213-1.254.058-1.604.053a94.405 94.405 0 0 1-4.706-.198c-.015-.001-.028.001-.042.001.113-5.687.179-11.375.246-17.064zM28.427 28.933l-4.95.152c-.591.018-1.687.247-2.074-.113-.137-.128-.216-.434-.336-.594-.164-.22-.345-.4-.56-.567a2.936 2.936 0 0 0-1.416-.59c-.099-.014-.666.04-.719-.005-.135-.113-.126-.963-.147-1.162a84.172 84.172 0 0 1-.443-7.777c-.005-.49-.223-2.1.156-2.442.159-.144.655-.123.882-.185.36-.097.728-.222 1.055-.404a2.958 2.958 0 0 0 1.144-1.105c.274-.477.233-.893.308-1.377.062-.01.142-.024.244-.046a159.14 159.14 0 0 1 1.962-.145c1.75-.12 3.498-.25 5.248-.367-.367 5.553-.509 11.161-.354 16.727zm.402-17.446a100.314 100.314 0 0 0-6.081-.058c-1.224.028-2.709-.233-2.651 1.388.047 1.355-1.178 1.537-2.239 1.81-.457.118-.822.246-1.014.723-.289.718-.105 1.778-.119 2.537-.018.973-.02 1.947-.005 2.92a80.32 80.32 0 0 0 .305 6.022c.046.507-.007 1.193.458 1.529.597.432 1.384-.069 2.056.267.689.344.68 1.133 1.263 1.5.516.324 1.324.132 1.882.123 1.927-.03 3.856-.046 5.783-.067.02.563.043 1.125.07 1.686a305.153 305.153 0 0 1-8.646-.271c-.53-.025-1.06-.049-1.59-.076-.371-.02-1.113.034-1.445-.196-.359-.25-.327-.737-.369-1.14-.068-.649-.124-1.299-.186-1.948-.222-2.336-.41-4.672-.586-7.012-.171-2.29-.387-4.59-.38-6.89.002-.795-.154-2.067.348-2.743.533-.718 2.177-.792 2.995-.934 2.574-.447 5.217-.55 7.822-.713.817-.051 1.635-.096 2.452-.14-.043.56-.083 1.121-.123 1.683zm9.444 20.43a427.13 427.13 0 0 1-7.718-.02c-.131-7.381-.238-14.746-.161-22.131 2.337-.04 4.674-.09 7.01-.166.596-.019 1.193-.04 1.791-.063-.327 7.46-.678 14.918-.922 22.38zm2.084-1.705c.023.003.044.01.068.011 1.567.112 3.136.19 4.706.224.953.021 2.271.305 2.724-.76.277-.65.351-1.156.912-1.659.464-.417 1.003-.606 1.596-.744 1.198-.278.993-1.285 1.004-2.344a99.85 99.85 0 0 0-.337-8.958c-.064-.8.02-2.185-.74-2.698-.356-.24-.84-.14-1.238-.195-.858-.119-1.682-.705-1.314-1.66.15-.391-.232-.784-.605-.79-2.18-.037-4.332.166-6.494.385l.018-1.542c3.555-.132 7.13-.23 10.657.137.645.067.808-.002.932.663a69.157 69.157 0 0 1 .744 5.24c.239 2.307.374 4.624.4 6.943a85.424 85.424 0 0 1-.222 6.949c-.036.52-.03 1.082-.15 1.59-.136.571-.472.625-1.021.68-1.144.114-2.33.063-3.479.088-2.73.058-5.462.104-8.195.13.013-.563.022-1.127.034-1.69z"/>
        <path fill="#000" d="M37.036 17.948c-.947-.802-2.436-.955-3.545-.415-1.533.747-3.142 3.848-1.905 5.357.084.157.182.31.297.462 1.859 2.453 5.22.647 5.98-1.759.396-1.256.226-2.754-.827-3.645zm-.407 3.45c-.483 1.407-2.49 2.697-3.698 1.56a.33.33 0 0 0-.118-.192 1.845 1.845 0 0 1-.193-.183 2.49 2.49 0 0 1-.32-2.05c.262-.784.858-1.507 1.545-1.832 1.922-.908 3.416.858 2.784 2.697zM81.346 79.684a.922.922 0 0 0-.217-.5 6.898 6.898 0 0 0-1.754-2.29c-.791-.682-2.267.232-1.558 1.198.219.297.446.589.676.878-7.8.076-15.553.557-23.346.98-4.165.226-8.342.415-12.513.303-1.008-.027-2.024-.039-3.027-.135-.657-.063-.74-.024-.81-.698-.055-.537-.069-1.082-.098-1.621-.104-1.91-.159-3.822-.208-5.734.008-1.52.003-3.039-.007-4.557-.017-2.668.13-5.375.092-8.057.233.282.458.575.68.884.659.914 2.179.077 1.543-.899-.705-1.08-1.458-2.215-2.565-2.923a.818.818 0 0 0-.606-.104.6.6 0 0 0-.326.072c-.55.321-.826 1.003-1.14 1.533-.411.69-.8 1.393-1.219 2.077-.566.924.83 1.697 1.437.837.208-.295.411-.594.616-.891-.119 2.488-.05 5.012-.062 7.471a113.02 113.02 0 0 0 .09 5.245c-.024 1.614-.045 3.23-.084 4.844-.037 1.549-.564 3.842 1.458 4.308.89.205 1.915.09 2.823.106 1.21.022 2.421.016 3.632.013 2.221-.006 4.44-.047 6.66-.129 4.512-.166 9.017-.461 13.526-.695 4.313-.224 8.672-.455 13.002-.342l-1.005 1.002c-.941.939.569 2.43 1.457 1.452.725-.799 1.448-1.598 2.174-2.396.488-.15.872-.728.682-1.225a.043.043 0 0 0-.003-.007z"/>
        <path fill="#000" d="M42.85 77.957c1.008.174 2.069.21 3.09.277.634.041 1.662.306 2.228-.102.525-.378.395-1.114.381-1.677a274.112 274.112 0 0 0-.245-6.337c-.048-1.008-.018-2.066-.164-3.064-.075-.516-.201-.945-.738-1.146-.601-.224-1.477-.075-2.102-.055-.743.023-1.912-.108-2.594.215-.625.297-.507.955-.52 1.558l-.062 2.825-.043 1.928c-.065.736-.101 1.475-.146 2.214-.046.773-.364 1.974-.083 2.712.175.462.557.577.998.652zm.373-6.398c.03-.782.111-1.567.124-2.348.003-.21-.12-1.987.059-2.032 1.015-.253 2.174-.13 3.212-.149.064 0 .134 0 .185.039.046.036.065.096.08.152.053.217.065.441.076.664.142 2.757.197 5.52.219 8.277.002.255-.078.543-.305.659a.523.523 0 0 1-.162.05 1.377 1.377 0 0 1-.316-.002c-.985-.086-1.97-.17-2.954-.26-.066-.006-.136-.014-.185-.058-.059-.055-.065-.144-.067-.224a74.16 74.16 0 0 1 .034-4.768zM50.222 72.92l-.023.737c-.038 1.12-.196 2.37-.065 3.483.056.48.21.84.708.998.858.273 2.163.023 3.053.018 1.038-.006 2.078.012 3.115-.02.712-.023 1.278-.143 1.408-.922.148-.887-.011-1.94-.022-2.841a987.336 987.336 0 0 1-.035-3.487c-.018-2.253-.04-4.507-.17-6.758a59.45 59.45 0 0 0-.264-3.169c-.076-.683-.118-1.43-.765-1.833-.595-.368-1.419-.26-2.078-.251-1.148.014-2.295.056-3.442.074-.574.009-1.357-.087-1.7.51-.413.715-.109 2.057-.088 2.843.091 3.537.178 7.081.368 10.618zm3.444-12.775c.67-.02 1.842-.255 2.478-.054.827.261.658 1.735.706 2.451a82.2 82.2 0 0 1 .167 4.964c.021 2.835-.025 5.67-.05 8.506-.002.176-.008.367-.119.505-.149.185-.42.2-.658.2h-2.1l-1.92.001c-.132 0-.27-.001-.389-.06-.267-.136-.313-.49-.326-.79-.06-1.383-.23-2.777-.245-4.16-.015-1.324.015-2.66.015-3.987a715.67 715.67 0 0 0-.033-5.218c-.004-.362.028-.743-.01-1.103-.167-1.55 1.442-1.224 2.484-1.255zM60.476 71.234c.002 1.903.006 3.804-.084 5.708-.019.405.34.667.704.702 1.931.185 3.94.329 5.877.136 1.693-.168 1.457-1.828 1.522-3.145.1-2.027.187-4.054.148-6.083a46.202 46.202 0 0 0-.162-3.238c-.051-.568-.066-1.162-.583-1.516-.55-.377-1.322-.232-1.942-.2-1.016.051-2.032.108-3.048.154-.694.032-1.805-.184-2.427.195-.56.341-.454 1.034-.42 1.582.115 1.905.24 3.808.415 5.705zm1.6-6.255c.874.077 1.777-.032 2.66-.087.738-.045 1.428-.203 2.177-.139.097.009.204.024.27.097.057.063.068.153.076.238.267 2.768.14 5.56-.045 8.33-.062.934-.14 1.867-.214 2.8-.004.044-.01.092-.042.121-.03.028-.076.03-.117.031-1.654.033-3.302-.072-4.953-.072-.024-.001-.05-.003-.067-.019-.021-.02-.023-.052-.023-.081.01-1.298-.067-2.594-.067-3.89a230.39 230.39 0 0 0-.164-4.178c-.026-.555-.051-1.11-.075-1.666-.024-.552-.323-1.565.584-1.485zM70.25 76.755c.136 1.436 1.969 1.028 2.995.94a21.187 21.187 0 0 0 2.465-.345c.586-.122 1.263-.202 1.52-.814.294-.698.097-1.766.11-2.506l.047-2.858c.066-3.947.13-7.894.217-11.84.011-.503.146-1.206-.25-1.61-.4-.41-1.283-.398-1.808-.45-1.807-.178-3.54.1-5.305.46-.295.06-.5.372-.503.657-.057 5.284.45 10.574.603 15.861-.047.824-.166 1.698-.09 2.505zM72.01 58.6c1.062-.113 2.126-.226 3.194-.253.231-.006.467-.007.689.058.222.065.431.208.525.419.09.206.06.443.03.666l-.03.259c-.176 1.556-.133 3.137-.174 4.7-.045 1.697-.093 3.394-.14 5.09-.04 1.656-.091 3.312-.133 4.969-.011.442-.021.892.094 1.32-.212.109-.452.147-.688.181-.726.106-1.455.185-2.186.248-.39.034-1.335.308-1.53-.182-.203-.51-.004-1.289-.03-1.837-.04-.817-.069-1.634-.088-2.452-.058-2.452-.018-4.908-.018-7.36a68.552 68.552 0 0 0-.136-3.057 56.876 56.876 0 0 0-.124-1.522c-.066-.692-.066-1.16.745-1.247z"/>
    </g>
</svg>
