<svg xmlns="http://www.w3.org/2000/svg" width="50" height="50" viewBox="0 0 50 50">
    <g fill="#FFF" fill-rule="nonzero">
        <path d="M45.833 0H4.167A4.171 4.171 0 0 0 0 4.167v31.666A4.171 4.171 0 0 0 4.167 40H20.6l-1.25 5h-6.017a.833.833 0 0 0-.833.833A4.171 4.171 0 0 0 16.667 50h16.666a4.171 4.171 0 0 0 4.167-4.167.833.833 0 0 0-.833-.833H30.65l-1.25-5h16.433A4.171 4.171 0 0 0 50 35.833V4.167A4.171 4.171 0 0 0 45.833 0zM30 46.667h5.69a2.505 2.505 0 0 1-2.357 1.666H16.667a2.505 2.505 0 0 1-2.358-1.666H30zM21.067 45l1.25-5h5.366l1.25 5h-7.866zm27.266-9.167c0 1.379-1.121 2.5-2.5 2.5H4.167a2.503 2.503 0 0 1-2.5-2.5V35h46.666v.833zm0-2.5H1.667V4.167c0-1.379 1.121-2.5 2.5-2.5h41.666c1.379 0 2.5 1.121 2.5 2.5v29.166z"/>
        <path d="M18.922 24.756l-1.178-1.178-3.333 3.333a.832.832 0 0 0 0 1.178l3.333 3.334 1.178-1.179-2.744-2.744 2.744-2.744zM21.835 30.333l5.002-6.666 1.333 1-5.001 6.667zM35.59 26.91l-3.334-3.332-1.178 1.178 2.744 2.744-2.745 2.744 1.179 1.178 3.333-3.333a.832.832 0 0 0 0-1.178zM33.333 10h-1.268a7.809 7.809 0 0 0-.3-.727l.896-.898a.833.833 0 0 0 0-1.178l-2.357-2.358a.832.832 0 0 0-1.178 0l-.898.897a8.058 8.058 0 0 0-.728-.301V4.167a.833.833 0 0 0-.833-.834h-3.334a.833.833 0 0 0-.833.834v1.268a7.5 7.5 0 0 0-.727.3l-.898-.895a.832.832 0 0 0-1.178 0L17.34 7.197a.833.833 0 0 0 0 1.179l.897.897c-.113.237-.214.48-.301.728h-1.27a.833.833 0 0 0-.833.833v3.334c0 .459.373.832.834.832h1.268c.088.248.19.49.3.727l-.896.898a.833.833 0 0 0 0 1.178l2.357 2.358a.832.832 0 0 0 1.178 0l.898-.897a7.5 7.5 0 0 0 .727.301v1.268c0 .46.373.834.834.834h3.333c.46 0 .833-.374.833-.834v-1.268a7.5 7.5 0 0 0 .728-.3l.897.896a.832.832 0 0 0 1.178 0l2.357-2.358a.833.833 0 0 0 0-1.178l-.896-.898c.112-.236.213-.48.3-.727h1.27c.461 0 .834-.373.834-.833v-3.334a.833.833 0 0 0-.834-.833zm-.833 3.333h-1.052a.833.833 0 0 0-.806.625 5.804 5.804 0 0 1-.622 1.5.834.834 0 0 0 .128 1.013l.744.743-1.178 1.18-.744-.744a.833.833 0 0 0-1.013-.128c-.466.275-.97.483-1.5.62a.833.833 0 0 0-.624.806V20h-1.666v-1.052a.834.834 0 0 0-.625-.806 5.799 5.799 0 0 1-1.5-.62.832.832 0 0 0-1.013.128l-.744.743-1.178-1.179.744-.743a.833.833 0 0 0 .128-1.013 5.804 5.804 0 0 1-.621-1.5.832.832 0 0 0-.806-.625H17.5v-1.666h1.052c.38 0 .711-.257.806-.625a5.804 5.804 0 0 1 .622-1.5.834.834 0 0 0-.128-1.013l-.744-.743 1.178-1.18.744.744a.832.832 0 0 0 1.013.128c.466-.275.97-.483 1.5-.62a.833.833 0 0 0 .624-.806V5h1.666v1.052c0 .38.258.711.625.806.53.137 1.034.345 1.5.62a.834.834 0 0 0 1.013-.128l.744-.743 1.178 1.179-.744.743a.833.833 0 0 0-.128 1.013c.276.466.485.971.621 1.5a.834.834 0 0 0 .807.625H32.5v1.666z"/>
        <path d="M25 8.333a4.171 4.171 0 0 0-4.167 4.167A4.171 4.171 0 0 0 25 16.667a4.171 4.171 0 0 0 4.167-4.167A4.171 4.171 0 0 0 25 8.333zM25 15a2.503 2.503 0 0 1-2.5-2.5c0-1.378 1.122-2.5 2.5-2.5s2.5 1.122 2.5 2.5S26.378 15 25 15zM13.333 6.667H15v1.667h-1.667zM10 6.667h1.667v1.667H10zM6.667 6.667h1.667v1.667H6.667zM3.333 6.667H5v1.667H3.333zM3.333 10H5v1.667H3.333zM3.333 13.333H5V15H3.333zM3.333 16.667H5v1.667H3.333zM3.333 20H5v1.667H3.333zM3.333 23.333H5V25H3.333zM3.333 26.667H5v1.667H3.333zM6.667 26.667h1.667v1.667H6.667zM10 26.667h1.667v1.667H10zM38.333 26.667H40v1.667h-1.667zM41.667 26.667h1.667v1.667h-1.667zM45 26.667h1.667v1.667H45zM45 23.333h1.667V25H45zM45 20h1.667v1.667H45zM45 16.667h1.667v1.667H45zM45 13.333h1.667V15H45zM45 10h1.667v1.667H45zM45 6.667h1.667v1.667H45zM41.667 6.667h1.667v1.667h-1.667zM38.333 6.667H40v1.667h-1.667zM35 6.667h1.667v1.667H35z"/>
    </g>
</svg>
