<svg xmlns="http://www.w3.org/2000/svg" width="50" height="50" viewBox="0 0 50 50">
    <g fill="#FFF" fill-rule="nonzero">
        <path d="M49.167 10H47.5V2.5C47.5 1.122 46.378 0 45 0H35a2.503 2.503 0 0 0-2.5 2.5V10h-1.667a.833.833 0 0 0-.833.833A4.171 4.171 0 0 0 34.167 15h11.666A4.171 4.171 0 0 0 50 10.833a.833.833 0 0 0-.833-.833zm-15-7.5c0-.46.373-.833.833-.833h10c.46 0 .833.373.833.833V10H34.167V2.5zm11.666 10.833H34.167a2.505 2.505 0 0 1-2.358-1.666h16.382a2.505 2.505 0 0 1-2.358 1.666z"/>
        <path d="M43.2 3h-6.4c-.442 0-.8.373-.8.833v3.334c0 .46.358.833.8.833h6.4c.442 0 .8-.372.8-.833V3.833c0-.46-.358-.833-.8-.833zm-.8 3.333h-4.8V4.667h4.8v1.666zM20.686 48.553L16.8 45.548v-4.486c0-2.24-1.885-4.062-4.2-4.062H4.2C1.883 37 0 38.822 0 41.063v4.874C0 48.178 1.884 50 4.2 50h15.96a.838.838 0 0 0 .793-.544.798.798 0 0 0-.267-.903zM4.2 48.375c-1.39 0-2.52-1.094-2.52-2.438v-4.874c0-1.344 1.13-2.438 2.52-2.438h8.4c1.39 0 2.52 1.094 2.52 2.438v4.874c0 .248.116.48.315.635l2.33 1.803H4.2z"/>
        <path d="M4 43h2v2H4zM8 43h2v2H8zM11 43h2v2h-2zM9.945 19.863l-2.018-5.218c.72-.451 1.198-1.23 1.198-2.117C9.125 11.134 7.948 10 6.5 10c-1.447 0-2.625 1.134-2.625 2.528 0 .887.479 1.666 1.198 2.117l-2.018 5.218a.819.819 0 0 0 .101.775.885.885 0 0 0 .72.362h5.25a.883.883 0 0 0 .718-.362.816.816 0 0 0 .101-.775zM6.5 11.686c.483 0 .875.377.875.842 0 .437-.349.784-.79.826a.942.942 0 0 1-.169 0c-.442-.042-.79-.39-.79-.826 0-.465.391-.842.874-.842zm-1.366 7.628l1.366-3.53 1.366 3.53H5.134zM4 7.994L5.116 9c1.04-.832 2.729-.832 3.768 0L10 7.994c-1.653-1.325-4.347-1.325-6 0zM2 4.87L3.125 6a4.762 4.762 0 0 1 6.75 0L11 4.87a6.35 6.35 0 0 0-9 0z"/>
        <path d="M6.5 0C4.046 0 1.737.987 0 2.78L1.182 4C2.605 2.532 4.492 1.725 6.5 1.725c2.008 0 3.897.807 5.318 2.275L13 2.78C11.263.989 8.955 0 6.5 0zM49.188 38H37.812c-.449 0-.812.383-.812.857v10.286c0 .474.363.857.813.857h11.374c.45 0 .813-.383.813-.857V38.857c0-.474-.363-.857-.813-.857zm-.813 10.286h-9.75V46.57h9.75v1.715zm0-3.429h-9.75v-1.714h9.75v1.714zm0-3.428h-9.75v-1.715h9.75v1.715zM22.5 21c-1.93 0-3.5 1.57-3.5 3.5s1.57 3.5 3.5 3.5 3.5-1.57 3.5-3.5-1.57-3.5-3.5-3.5zm0 5.25c-.965 0-1.75-.785-1.75-1.75s.785-1.75 1.75-1.75 1.75.785 1.75 1.75-.785 1.75-1.75 1.75z"/>
        <path d="M29.167 22h-.487c-.014-.034-.027-.068-.043-.102l.345-.344a.831.831 0 0 0 0-1.178l-2.358-2.358a.858.858 0 0 0-1.178 0l-.344.345L25 18.32v-.487a.833.833 0 0 0-.833-.833h-3.334a.833.833 0 0 0-.833.833v.487c-.034.014-.068.027-.102.043l-.344-.345a.831.831 0 0 0-1.178 0l-2.358 2.358a.833.833 0 0 0 0 1.178l.345.344-.043.102h-.487a.833.833 0 0 0-.833.833v3.334c0 .46.373.833.833.833h.487c.014.034.027.068.043.102l-.345.344a.831.831 0 0 0 0 1.178l2.358 2.358a.858.858 0 0 0 1.178 0l.344-.345.102.043v.487c0 .46.372.833.833.833h3.334c.46 0 .833-.372.833-.833v-.487c.034-.014.068-.027.102-.043l.344.345a.831.831 0 0 0 1.178 0l2.358-2.358a.833.833 0 0 0 0-1.178l-.345-.344.043-.102h.487c.46 0 .833-.372.833-.833v-3.334a.833.833 0 0 0-.833-.833zm-.834 3.333h-.245a.833.833 0 0 0-.798.595c-.102.34-.232.659-.39.95a.834.834 0 0 0 .143.987l.17.17-1.178 1.18-.17-.172a.837.837 0 0 0-.988-.143c-.291.158-.61.29-.95.39a.831.831 0 0 0-.594.798v.245h-1.666v-.245a.833.833 0 0 0-.595-.798 4.973 4.973 0 0 1-.95-.39.835.835 0 0 0-.987.143l-.17.17-1.18-1.178.172-.17c.26-.26.319-.663.143-.988-.158-.291-.29-.61-.39-.95a.831.831 0 0 0-.798-.594h-.245v-1.666h.245a.833.833 0 0 0 .798-.595c.102-.34.232-.659.39-.95a.834.834 0 0 0-.143-.987l-.17-.17 1.178-1.18.17.172c.262.261.665.319.988.143.291-.158.61-.29.95-.39a.831.831 0 0 0 .594-.798v-.245h1.666v.245c0 .368.242.693.595.798.34.102.659.232.95.39a.835.835 0 0 0 .987-.143l.17-.17 1.18 1.178-.172.17a.835.835 0 0 0-.143.988c.158.291.29.61.39.95.105.352.43.594.798.594h.245v1.666zM15 4h2v2h-2zM18 4h2v2h-2zM22 4h2v2h-2zM25 4h2v2h-2zM28 4h2v2h-2zM47 18h2v2h-2zM47 21h2v2h-2zM47 34h2v2h-2zM33 43h2v2h-2zM29 43h2v2h-2zM26 43h2v2h-2zM23 43h2v2h-2zM19 43h2v2h-2zM2 33h2v2H2zM2 30h2v2H2zM2 27h2v2H2zM2 23h2v2H2zM47 31h2v2h-2zM47 28h2v2h-2zM47 24h2v2h-2z"/>
        <path d="M38.333 21.667a4.963 4.963 0 0 0-4.162-4.916c-1-.2-2.032-.041-2.937.389A9.954 9.954 0 0 0 21.667 10c-5.515 0-10 4.486-10 10 0 .558.047 1.116.141 1.668C8.084 21.596 5 24.61 5 28.333A6.674 6.674 0 0 0 11.667 35h27.5a.74.74 0 0 0 .394-.12C42.68 34.296 45 31.532 45 28.332a6.674 6.674 0 0 0-6.667-6.666zm.705 11.61a.675.675 0 0 0-.188.056H11.667c-2.758 0-5-2.242-5-5 0-2.757 2.242-5 5-5 .345 0 .698.038 1.047.113a.834.834 0 0 0 .972-1.054A8.369 8.369 0 0 1 13.333 20c0-4.595 3.739-8.333 8.334-8.333 4.073 0 7.52 2.92 8.199 6.944a.835.835 0 0 0 1.354.502 3.283 3.283 0 0 1 2.113-.78c.17 0 .34.018.539.057a3.313 3.313 0 0 1 2.795 3.277c0 .229-.03.471-.09.74a.831.831 0 0 0 .954 1.005c.31-.054.566-.079.802-.079 2.758 0 5 2.243 5 5a5.017 5.017 0 0 1-4.295 4.945z"/>
    </g>
</svg>
