<svg xmlns="http://www.w3.org/2000/svg" width="50" height="50" viewBox="0 0 50 50">
    <g fill="#FFF" fill-rule="nonzero">
        <path d="M25 0C14.09 0 7.534 8.878 7.5 17.462a17.537 17.537 0 0 0 5.588 12.883c2.745 2.552 4.412 4.363 4.412 8.026V40.833c0 .643.25 1.224.65 1.667a2.48 2.48 0 0 0-.65 1.667c0 1.378 1.122 2.5 2.5 2.5h.084A4.174 4.174 0 0 0 24.167 50h1.666a4.174 4.174 0 0 0 4.083-3.333H30c1.378 0 2.5-1.122 2.5-2.5 0-.643-.25-1.224-.65-1.667.4-.443.65-1.024.65-1.667v-2.466c0-3.694 1.645-5.474 4.353-7.967A17.537 17.537 0 0 0 42.5 17.534C42.5 7.374 35.14 0 25 0zm.833 48.333h-1.666a2.505 2.505 0 0 1-2.358-1.666h6.382a2.505 2.505 0 0 1-2.358 1.666zM30 45H20a.834.834 0 0 1 0-1.667h10A.834.834 0 0 1 30 45zm.833-4.167c0 .46-.373.834-.833.834H20a.834.834 0 0 1-.833-.834V40h11.666v.833zm4.891-11.658c-2.856 2.628-4.88 4.826-4.89 9.158h-1.667v-20h5.153A2.497 2.497 0 0 0 36.667 20c1.378 0 2.5-1.122 2.5-2.5s-1.122-2.5-2.5-2.5c-1.085 0-2.002.7-2.347 1.667h-5.987a.833.833 0 0 0-.833.833v20.833h-1.667v-25A.833.833 0 0 0 25 12.5h-5.153a2.497 2.497 0 0 0-2.347-1.667 2.503 2.503 0 0 0-2.5 2.5c0 1.379 1.122 2.5 2.5 2.5 1.085 0 2.002-.699 2.347-1.666h4.32v24.166H22.5V21.667a.833.833 0 0 0-.833-.834h-5.154a2.497 2.497 0 0 0-2.346-1.666 2.503 2.503 0 0 0-2.5 2.5c0 1.378 1.121 2.5 2.5 2.5 1.085 0 2.001-.7 2.346-1.667h4.32v15.833h-1.666c-.012-4.294-2.058-6.526-4.945-9.209A15.865 15.865 0 0 1 9.168 17.47c.03-7.543 5.636-15.316 15-15.76v6.624c0 .461.372.834.833.834h4.32a2.497 2.497 0 0 0 2.347 1.666c1.378 0 2.5-1.121 2.5-2.5 0-1.378-1.122-2.5-2.5-2.5-1.085 0-2.002.7-2.347 1.667h-3.487V1.703c8.87.381 15 6.773 15 15.831 0 4.408-1.861 8.651-5.109 11.641zm.11-11.675a.834.834 0 1 1 1.667 0 .834.834 0 0 1-1.668 0zm-17.5-4.167a.834.834 0 1 1-1.668 0 .834.834 0 0 1 1.667 0zM15 21.667a.834.834 0 1 1-1.667 0 .834.834 0 0 1 1.667 0zM30.833 8.333a.834.834 0 1 1 1.668 0 .834.834 0 0 1-1.668 0zM49.167 3.542a2.503 2.503 0 0 1-2.5-2.5.833.833 0 1 0-1.667 0c0 1.378-1.122 2.5-2.5 2.5a.833.833 0 1 0 0 1.666c1.378 0 2.5 1.122 2.5 2.5a.833.833 0 1 0 1.667 0c0-1.378 1.121-2.5 2.5-2.5a.833.833 0 1 0 0-1.666zM45.833 5.21a4.181 4.181 0 0 0-.835-.836c.316-.237.598-.52.835-.836.238.317.52.599.836.836-.316.237-.598.52-.836.836zM10.833 39.375a4.171 4.171 0 0 1-4.166-4.167.833.833 0 1 0-1.667 0 4.171 4.171 0 0 1-4.167 4.167.833.833 0 1 0 0 1.667A4.171 4.171 0 0 1 5 45.208a.833.833 0 1 0 1.667 0 4.171 4.171 0 0 1 4.166-4.166.833.833 0 1 0 0-1.667zm-5 2.83a5.88 5.88 0 0 0-1.997-1.997 5.88 5.88 0 0 0 1.997-1.997 5.88 5.88 0 0 0 1.998 1.997 5.888 5.888 0 0 0-1.998 1.998z"/>
    </g>
</svg>
