<svg xmlns="http://www.w3.org/2000/svg" width="107" height="90" viewBox="0 0 107 90">
    <g fill="none" fill-rule="nonzero">
        <path fill="#5BD0FC" d="M68.753 2.96L48.94.9 11.383 4.213 9.4 22.558 7.6 25.422.935 28.464l9.187 8.055 1.08 9.396 7.926 3.043 13.15-.358 2.341-4.027 13.51-2.058 24.677-.627.54-9.218 1.081-16.734-2.161-8.95-.72-2.684z"/>
        <path fill="#CBE580" d="M93.16 43.141l-24.587-1.342-22.155.984-11.799 1.79-2.342 8.68.901 15.572.45 13.871 5.584 4.028L62 88.514 93.43 87.35l2.702-3.222-.18-6.085 5.133-5.817 4.143-4.385-7.565-3.848-2.162-4.475v-9.934l-.09-5.638z"/>
        <path fill="#000" d="M106.157 66.66c-.423-.849-1.42-1.205-2.229-1.575a59.446 59.446 0 0 0-2.709-1.145c-.906-.361-1.917-.611-2.772-1.08-.928-.507-.8-1.514-.85-2.44l-.182-3.475-.365-6.95c-.1-1.905.066-4.17-.602-5.986-.671-1.822-2.34-2.411-4.154-2.508-2.3-.123-4.61-.152-6.912-.222a469.44 469.44 0 0 0-11.047-.204c.377-1.541.36-3.205.46-4.759.295-4.57.556-9.146.56-13.727a95.205 95.205 0 0 0-.961-13.653c-.264-1.837-.58-3.81-1.789-5.3-1.174-1.446-2.891-2.115-4.686-2.447C63.604.389 59.083.21 54.703.113a137.1 137.1 0 0 0-13.467.35c-1.978.151-3.955.328-5.93.526-5.209.233-10.413.554-15.614.961-2.295.18-4.602.318-6.893.55-1.808.184-3.446.853-4.028 2.704-.58 1.846-.305 4.1-.313 6.009l-.029 6.959-.014 3.48c-.004.927.171 1.927-.73 2.477-.833.509-1.83.807-2.718 1.21-.893.407-1.78.824-2.65 1.274-.79.408-1.77.81-2.15 1.68-.361.82-.1 1.68.444 2.344.705.86 1.789 1.466 2.678 2.123l2.623 1.936c.88.651 1.847 1.259 2.643 2.013.721.683.766 1.358.682 2.308-.148 1.678-.288 3.356.018 5.026.305 1.66 1.003 3.313 2.36 4.394 1.44 1.146 3.264 1.552 5.064 1.701 4.494.373 9.014.135 13.51-.036l.973-.038a95.204 95.204 0 0 0-.383 14.485c.226 4.576.707 9.134 1.222 13.685.225 1.989.256 4.172 1.176 5.996.806 1.598 2.347 2.577 4.004 3.142 1.864.636 3.909.823 5.85 1.092 2.218.306 4.445.55 6.677.745 4.534.396 9.085.585 13.635.665 4.626.08 9.253.048 13.878.003 4.5-.043 9.027-.021 13.497-.608 1.79-.235 3.593-.727 4.975-1.94 1.305-1.146 1.922-2.83 2.146-4.503.226-1.682.005-3.351-.224-5.02-.13-.945-.118-1.621.57-2.338.759-.792 1.694-1.444 2.543-2.136l2.526-2.059c.856-.699 1.91-1.355 2.573-2.248.51-.69.73-1.561.33-2.365zm-81.86-19.104c-2.18.043-4.365.047-6.54-.096-1.544-.101-3.312-.24-4.518-1.31-1.115-.987-1.362-2.502-1.409-3.916-.055-1.678.517-3.5.108-5.14-.448-1.794-2.01-2.789-3.437-3.79-1.782-1.252-3.581-2.482-5.347-3.757-.166-.12-.315-.247-.467-.376l.007-.001c.34-.055.851-.481 1.146-.64a29.327 29.327 0 0 1 2.596-1.243c1.548-.646 3.42-1.129 4.141-2.81.348-.81.327-1.712.346-2.575.024-1.024.044-2.049.066-3.073l.135-6.352c.031-1.474-.658-5.76.487-6.832.429-.4 1.057-.485 1.641-.55 9.145-1.008 18.306-1.971 27.489-2.55 1.683-.09 3.368-.162 5.055-.21 4.22-.12 8.45-.075 12.663.209 2.101.14 4.2.35 6.288.62 1.689.22 3.583.347 5.079 1.235 1.625.965 1.996 2.969 2.286 4.68.352 2.081.543 4.195.677 6.3.273 4.293.212 8.601.005 12.897a274.357 274.357 0 0 1-.412 6.636c-.137 1.889-.062 3.985-.61 5.813-.037.12-.08.231-.125.34-.636 0-1.272-.004-1.907-.001a249.91 249.91 0 0 0-5.949-.242 137.117 137.117 0 0 0-13.468.291c-4.37.308-8.878.701-13.15 1.705-1.776.418-3.459 1.168-4.562 2.669a6.452 6.452 0 0 0-.92 1.845c-2.465.094-4.93.176-7.395.224zm78.936 20.5c-1.702 1.358-3.44 2.673-5.16 4.008-1.376 1.068-2.889 2.136-3.25 3.95-.329 1.657.331 3.45.357 5.129.021 1.414-.152 2.939-1.218 3.978-1.154 1.126-2.913 1.35-4.45 1.524-2.165.246-4.349.347-6.527.408-4.218.118-8.442.144-12.66.165-8.557.043-17.137-.127-25.639-1.158-1.963-.239-3.97-.444-5.892-.922-1.55-.385-2.996-1.052-3.559-2.646-.636-1.799-.663-3.897-.891-5.777-.267-2.2-.518-4.402-.732-6.609-.414-4.28-.683-8.58-.617-12.882.032-2.109.12-4.229.372-6.324.207-1.724.48-3.743 2.057-4.784 1.451-.959 3.337-1.176 5.014-1.475 2.073-.37 4.158-.679 6.25-.92 4.195-.485 8.417-.73 12.639-.812 1.686-.033 3.373-.042 5.06-.031 9.2.14 18.396.665 27.58 1.236.586.037 1.218.091 1.665.47 1.196 1.017.714 5.33.816 6.802l.442 6.338c.071 1.022.14 2.044.214 3.066.06.861.084 1.764.47 2.555.802 1.646 2.695 2.039 4.272 2.61.905.327 1.785.704 2.653 1.119.302.144.833.545 1.176.583l.007.001c-.146.136-.289.272-.449.399z"/>
        <path fill="#000" d="M86.37 52.154c-3.395-.04-6.772-.169-10.162-.32-3.38-.152-6.78-.094-10.164-.132-3.32-.037-6.64-.026-9.958-.028-1.66 0-3.322-.018-4.98.04-1.792.062-3.608.263-5.398.239-.47-.007-.482.718-.011.726 1.721.029 3.461.272 5.18.388 1.657.112 3.317.149 4.977.198 3.387.1 6.774.216 10.162.28 3.315.063 6.64.202 9.955.181 3.462-.02 6.911-.08 10.374-.017 1.007.018 1.033-1.543.024-1.555zM86.252 59.782c-3.394-.041-6.77-.169-10.16-.32-3.38-.152-6.782-.094-10.165-.132-3.32-.038-6.639-.026-9.958-.028-1.66-.001-3.321-.019-4.98.04-1.792.062-3.608.263-5.398.238-.47-.006-.482.719-.011.727 1.721.028 3.461.272 5.18.388 1.657.112 3.318.149 4.977.198 3.387.1 6.774.216 10.162.28 3.315.063 6.64.201 9.956.181 3.462-.021 6.91-.08 10.374-.017 1.006.018 1.032-1.543.023-1.555zM86.135 67.41c-3.394-.041-6.77-.17-10.161-.321-3.38-.151-6.78-.093-10.164-.131-3.32-.038-6.639-.026-9.958-.028-1.66-.001-3.322-.019-4.98.04-1.792.062-3.608.262-5.398.238-.47-.006-.483.718-.011.726 1.721.029 3.46.273 5.18.389 1.657.111 3.317.148 4.977.198 3.387.1 6.774.215 10.162.28 3.315.063 6.64.2 9.955.18 3.462-.02 6.911-.08 10.374-.016 1.007.018 1.033-1.543.024-1.555zM86.018 75.038c-3.394-.041-6.77-.17-10.161-.32-3.38-.152-6.78-.094-10.164-.132-3.32-.038-6.639-.026-9.958-.028-1.66-.001-3.321-.019-4.98.04-1.792.062-3.608.262-5.398.238-.47-.006-.483.719-.011.726 1.721.03 3.461.272 5.18.389 1.657.112 3.317.149 4.977.198 3.387.1 6.774.215 10.162.28 3.316.063 6.64.201 9.956.18 3.462-.02 6.91-.08 10.374-.016 1.006.018 1.032-1.543.023-1.555zM29.692 13.933c3.313-.138 6.627-.434 9.936-.655 3.38-.226 6.758-.502 10.136-.764 1.656-.128 3.312-.244 4.962-.435 1.712-.198 3.438-.524 5.156-.635.47-.03.423-.754-.046-.725-1.788.11-3.611-.004-5.404.019-1.66.021-3.318.118-4.976.198-3.315.16-6.632.307-9.945.502-3.378.2-6.778.304-10.146.616-3.379.313-6.746.602-10.134.805-1.007.06-.906 1.618.099 1.552 3.456-.229 6.903-.334 10.362-.478zM30.178 21.547c3.313-.138 6.627-.435 9.935-.656 3.381-.225 6.758-.502 10.137-.764 1.655-.128 3.312-.244 4.96-.435 1.713-.198 3.439-.524 5.157-.634.47-.03.423-.754-.046-.725-1.788.11-3.61-.005-5.404.018-1.66.022-3.318.118-4.976.198-3.315.16-6.632.307-9.945.503-3.378.2-6.778.303-10.146.615-3.38.314-6.746.603-10.134.805-1.007.06-.906 1.618.099 1.552 3.456-.228 6.903-.333 10.363-.477zM30.663 29.16c3.313-.137 6.627-.434 9.936-.655 3.38-.226 6.758-.502 10.136-.764 1.655-.128 3.312-.244 4.961-.435 1.712-.198 3.438-.524 5.156-.635.47-.03.424-.754-.046-.725-1.787.11-3.61-.004-5.403.019-1.66.021-3.319.118-4.976.198-3.316.16-6.632.307-9.946.503-3.377.199-6.777.303-10.146.615-3.378.314-6.746.602-10.134.805-1.007.06-.906 1.618.1 1.552 3.455-.228 6.903-.334 10.362-.477zM51.22 35.355c1.655-.129 3.312-.245 4.961-.435 1.712-.198 3.438-.525 5.157-.635.47-.03.423-.754-.047-.725-1.787.11-3.61-.004-5.403.018-1.66.022-3.318.118-4.976.198-3.316.16-6.632.307-9.945.503-3.378.2-6.778.303-10.146.616-3.38.313-6.746.602-10.135.804-1.007.06-.905 1.619.1 1.553 3.455-.229 6.903-.334 10.362-.478 3.313-.138 6.627-.434 9.936-.655 3.38-.226 6.758-.503 10.136-.764z"/>
    </g>
</svg>
