<svg xmlns="http://www.w3.org/2000/svg" width="50" height="50" viewBox="0 0 50 50">
    <g fill="#FFF" fill-rule="nonzero">
        <path d="M39.167 40v2.988l-3.14-3.14c1.494-2.726 2.306-5.669 2.306-8.683v-.332H40v-1.666h-1.667v-7.5a.833.833 0 0 0-.833-.834h-5.833v-5a.833.833 0 0 0-.834-.833h-2.5v-2.5c0-6.893-5.607-12.5-12.5-12.5-6.892 0-12.5 5.607-12.5 12.5V15h-2.5a.833.833 0 0 0-.833.833v25A4.171 4.171 0 0 0 4.167 45h13.72c1.873 1.858 4.128 3.518 6.721 4.902a.825.825 0 0 0 .784 0c4.206-2.244 7.522-5.213 9.749-8.584l2.847 2.849H35v1.666h5c.46 0 .833-.373.833-.833v-5h-1.666zM5 12.5C5 6.527 9.86 1.667 15.833 1.667c5.974 0 10.834 4.86 10.834 10.833V15h-2.5v-2.5c0-4.595-3.739-8.333-8.334-8.333S7.5 7.905 7.5 12.5V15H5v-2.5zm17.5 0V15H9.167v-2.5a6.674 6.674 0 0 1 6.666-6.667A6.674 6.674 0 0 1 22.5 12.5zm-20.833 10h5V25h-5v-2.5zm0 4.167h5v2.5h-5v-2.5zm0 4.166h5v2.5h-5v-2.5zm0 4.167h5v2.5h-5V35zm2.5 8.333a2.503 2.503 0 0 1-2.5-2.5v-1.666H7.5c.46 0 .833-.374.833-.834V21.667a.833.833 0 0 0-.833-.834H1.667v-4.166H30v4.166H12.5a.833.833 0 0 0-.833.834v9.498c0 4.352 1.679 8.557 4.696 12.168H4.167zM25 48.218c-7.314-4.04-11.667-10.387-11.667-17.053V22.5h23.334v6.667H35V25a.833.833 0 0 0-.833-.833H15.833A.833.833 0 0 0 15 25v4.558c0 6.746 3.68 12.944 9.6 16.174a.836.836 0 0 0 .8 0 18.399 18.399 0 0 0 7.15-7.004l1.385 1.385c-2.006 3.154-5.046 5.958-8.935 8.105zm0-19.051a.834.834 0 0 0-.59 1.422l6.913 6.913A16.734 16.734 0 0 1 25 44.044a16.745 16.745 0 0 1-8.333-14.485v-3.726h16.666v3.334H25zm8.28 1.666a16.734 16.734 0 0 1-1.196 5.072l-5.072-5.072h6.269zm1.518 7.786l-1.451-1.452a18.385 18.385 0 0 0 1.609-6.335h1.71v.333c0 2.57-.653 5.093-1.868 7.454zM41.667 29.167h1.667v1.667h-1.667zM45 29.167h1.667v1.667H45zM48.333 29.167H50v1.667h-1.667zM45 6.667h1.667v1.667H45zM48.333 6.667H50v1.667h-1.667zM48.333 15h-9.655l1.911-1.91-1.178-1.18-3.334 3.334a.832.832 0 0 0 0 1.178l3.334 3.334 1.178-1.178-1.91-1.911h9.654V15zM50 22.5h-7.155l1.91-1.91-1.178-1.18-3.333 3.334a.832.832 0 0 0 0 1.178l3.334 3.334 1.178-1.178-1.911-1.911H50V22.5zM43.333 6.667h-9.655l1.911-1.911-1.178-1.179-3.334 3.334a.832.832 0 0 0 0 1.178l3.334 3.333 1.178-1.178-1.91-1.91h9.654V6.666z"/>
    </g>
</svg>
