<svg xmlns="http://www.w3.org/2000/svg" width="50" height="50" viewBox="0 0 50 50">
    <g fill="#FFF" fill-rule="nonzero">
        <path d="M20.833 0h-6.666a.833.833 0 0 0-.834.833c0 .138-.015.271-.045.42a2.487 2.487 0 0 1-2.455 2.08 2.493 2.493 0 0 1-2.458-2.096 2.137 2.137 0 0 1-.042-.404A.833.833 0 0 0 7.5 0H.833A.833.833 0 0 0 0 .833v5c0 .461.373.834.833.834h2.5v9.166c0 .461.374.834.834.834H17.5c.46 0 .833-.373.833-.834V6.667h2.5c.46 0 .834-.373.834-.834v-5A.833.833 0 0 0 20.833 0zM20 5h-2.5a.833.833 0 0 0-.833.833V15H5V5.833A.833.833 0 0 0 4.167 5h-2.5V1.667H6.76A4.15 4.15 0 0 0 10.833 5a4.145 4.145 0 0 0 4.075-3.333H20V5zM48.333 0H25a.833.833 0 0 0-.833.833v13.334c0 .46.373.833.833.833h23.333c.46 0 .834-.373.834-.833V.833A.833.833 0 0 0 48.333 0zm-22.5 1.667h2.382a3.329 3.329 0 0 1-2.382 2.381V1.667zm0 11.666v-2.381a3.329 3.329 0 0 1 2.382 2.381h-2.382zm21.667 0h-2.382a3.329 3.329 0 0 1 2.382-2.381v2.381zm0-4.09a5.005 5.005 0 0 0-4.092 4.09H29.925a5.006 5.006 0 0 0-4.092-4.091V5.758a5.006 5.006 0 0 0 4.092-4.091h13.483A5.006 5.006 0 0 0 47.5 5.758v3.484zm0-5.195a3.329 3.329 0 0 1-2.382-2.381H47.5v2.381z"/>
        <path d="M36.667 4.167A3.337 3.337 0 0 0 33.333 7.5a3.337 3.337 0 0 0 3.334 3.333A3.337 3.337 0 0 0 40 7.5a3.337 3.337 0 0 0-3.333-3.333zm0 5C35.747 9.167 35 8.419 35 7.5c0-.92.748-1.667 1.667-1.667s1.666.748 1.666 1.667c0 .92-.747 1.667-1.666 1.667zM36.667 30c-.942 0-1.802.326-2.5.855V22.5A4.171 4.171 0 0 0 30 18.333H20a4.171 4.171 0 0 0-4.167 4.167v4.167H15a2.503 2.503 0 0 0-2.5 2.5v10c0 1.378 1.122 2.5 2.5 2.5h.918a4.152 4.152 0 0 0 1.278 2.227l2.02 5.558c.12.329.434.548.784.548h12.5a.834.834 0 0 0 .707-.392l4.166-6.666a.835.835 0 0 0 .127-.442V30.833a.833.833 0 0 0-.833-.833zM20 20h10c1.378 0 2.5 1.122 2.5 2.5h-15c0-1.378 1.122-2.5 2.5-2.5zm-2.69 19.674a.836.836 0 0 1-.644.326H15a.834.834 0 0 1-.833-.833v-.834h2.5c.459 0 .833.374.833.834a.818.818 0 0 1-.19.507zm-.643-3.007h-2.5V35h2.5a.834.834 0 0 1 0 1.667zm0-3.334h-2.5v-1.666h2.5a.834.834 0 0 1 0 1.666zm0-3.333h-2.5v-.833c0-.46.374-.834.833-.834h1.667a.834.834 0 0 1 0 1.667zm.833-3.19v-2.643h15v15H19.167a2.49 2.49 0 0 0-.639-1.667 2.49 2.49 0 0 0 .639-1.667 2.49 2.49 0 0 0-.639-1.666 2.49 2.49 0 0 0 .639-1.667 2.49 2.49 0 0 0-.639-1.667 2.49 2.49 0 0 0 .639-1.666c0-.158-.019-.31-.047-.46-.008-.046-.022-.09-.033-.136a2.41 2.41 0 0 0-.305-.722c-.022-.034-.04-.07-.064-.104a2.557 2.557 0 0 0-.277-.337c-.017-.017-.037-.03-.054-.047a2.53 2.53 0 0 0-.283-.233c-.038-.027-.078-.051-.117-.076a2.464 2.464 0 0 0-.274-.149c-.043-.02-.085-.04-.13-.057-.028-.012-.054-.027-.083-.037zm.932 15.95c-.012-.008-.026-.012-.039-.02a2.701 2.701 0 0 1-.115-.105c-.034-.032-.072-.06-.104-.096a2.557 2.557 0 0 1-.191-.24c-.019-.026-.041-.048-.059-.074a2.53 2.53 0 0 1-.193-.344l-.004-.008a2.415 2.415 0 0 1-.14-.383l.03-.014c.031-.014.06-.03.09-.044.104-.048.203-.101.298-.162a2.522 2.522 0 0 0 .36-.28c.03-.03.063-.056.092-.087.023-.023.046-.046.067-.07H32.5c0 1.378-1.122 2.5-2.5 2.5H20c-.17 0-.33-.02-.48-.05h-.002c-.028-.006-.055-.016-.082-.022a2.568 2.568 0 0 1-1.004-.5zm17.401-.5l-3.795 6.073H20.583l-1.23-3.385c.213.035.429.052.647.052h10a4.171 4.171 0 0 0 4.167-4.167v-6.666c0-1.087.696-2.014 1.666-2.358v10.452z"/>
        <path d="M28.534 28.624l-4.414 5.15-2.697-2.697-1.178 1.179 3.333 3.333a.83.83 0 0 0 .589.244h.032a.833.833 0 0 0 .601-.291l5-5.834-1.266-1.084zM5.833 19.167H7.5v1.667H5.833zM5.833 22.5H7.5v1.667H5.833zM5.833 25.833H7.5V27.5H5.833zM5.833 29.167H7.5v1.667H5.833zM5.833 32.5H7.5v1.667H5.833zM5.833 35.833H7.5V37.5H5.833zM9.167 35.833h1.667V37.5H9.167zM39.167 36.667h1.667v1.667h-1.667zM42.5 36.667h1.667v1.667H42.5zM42.5 33.333h1.667V35H42.5zM42.5 30h1.667v1.667H42.5zM42.5 26.667h1.667v1.667H42.5zM42.5 23.333h1.667V25H42.5zM42.5 20h1.667v1.667H42.5zM42.5 16.667h1.667v1.667H42.5z"/>
    </g>
</svg>
