<svg xmlns="http://www.w3.org/2000/svg" width="35" height="50" viewBox="0 0 35 50">
    <g fill="#FFF" fill-rule="nonzero">
        <path d="M30.833 26.667c-1 0-1.888.451-2.5 1.151a3.313 3.313 0 0 0-2.5-1.151c-1 0-1.888.451-2.5 1.151a3.313 3.313 0 0 0-2.5-1.151c-.61 0-1.174.176-1.666.463v-1.883c3.954-1.4 6.666-5.181 6.666-9.415 0-5.514-4.485-10-10-10-5.514 0-10 4.487-10 10.001 0 4.234 2.713 8.014 6.667 9.415v11.907L9.786 34.44a3.756 3.756 0 0 0-2.673-1.107 3.784 3.784 0 0 0-3.78 3.78c0 1.009.394 1.959 1.108 2.672l8.059 8.06v1.322c0 .46.373.833.833.833H32.5c.46 0 .833-.373.833-.833V46.03l.746-1.49a.835.835 0 0 0 .088-.373v-14.17a3.335 3.335 0 0 0-3.334-3.33zm-15-12.5A3.337 3.337 0 0 0 12.5 17.5v2.05a5.016 5.016 0 0 1-1.667-3.717c0-2.757 2.243-5 5-5 2.758 0 5 2.243 5 5 0 1.431-.625 2.781-1.666 3.717V17.5a3.337 3.337 0 0 0-3.334-3.333zM7.5 15.833c0-4.595 3.738-8.333 8.333-8.333 4.595 0 8.334 3.738 8.334 8.333 0 3.326-2.009 6.321-5 7.631v-1.883c2.035-1.185 3.333-3.377 3.333-5.748a6.674 6.674 0 0 0-6.667-6.666 6.674 6.674 0 0 0-6.666 6.666c0 2.371 1.298 4.563 3.333 5.748v1.883c-2.992-1.31-5-4.305-5-7.63zm25 28.137l-.746 1.49a.835.835 0 0 0-.087.373v2.5h-17.5V47.5a.83.83 0 0 0-.245-.59L5.62 38.608A2.1 2.1 0 0 1 5 37.112a2.116 2.116 0 0 1 3.607-1.494l4.137 4.138a.833.833 0 0 0 1.423-.59V17.5c0-.92.747-1.667 1.666-1.667.92 0 1.667.748 1.667 1.667V35h1.667v-5c0-.92.747-1.667 1.666-1.667.92 0 1.667.748 1.667 1.667v5h1.667v-5c0-.92.747-1.667 1.666-1.667.92 0 1.667.748 1.667 1.667v5h1.667v-5a1.667 1.667 0 0 1 3.333-.003V43.97z"/>
        <path d="M19.058.422A.832.832 0 0 0 18.333 0h-5a.832.832 0 0 0-.714 1.262l2.5 4.167a.834.834 0 0 0 1.428 0l2.5-4.167a.834.834 0 0 0 .011-.84zm-3.225 2.959l-1.028-1.714h2.057L15.833 3.38zM31.244 12.608a.833.833 0 0 0-.839.011l-4.167 2.5a.83.83 0 0 0 0 1.428l4.166 2.5a.836.836 0 0 0 .84.011.834.834 0 0 0 .423-.725v-5c0-.3-.162-.576-.423-.725zM30 16.862l-1.713-1.029L30 14.806v2.056zM5.43 15.12l-4.167-2.5A.835.835 0 0 0 0 13.332v5a.834.834 0 0 0 1.262.715l4.167-2.5a.831.831 0 0 0 0-1.429zm-3.763 1.74v-2.055l1.713 1.028-1.713 1.028z"/>
    </g>
</svg>
