<svg xmlns="http://www.w3.org/2000/svg" width="96" height="90" viewBox="0 0 96 90">
    <g fill="none" fill-rule="nonzero">
        <g fill="#5BD0FC">
            <path d="M19.169 1.32C14.352.487 8.506 3.658 5.147 6.918 3.968 8.061 2.906 9.343 2.445 10.94c-.508 1.757-.568 3.675-.589 5.493-.031 2.768 1.175 5.95 3.356 7.792 1.737 1.466 4.288 1.583 6.443 1.68-.033.911.169 1.892.31 2.796.109.704.057 2.109.532 2.59.546-.82 1.377-1.497 2.038-2.234.865-.964 1.65-1.992 2.492-2.967.45-.52.258-.436.974-.307 1.377.248 2.83.113 4.222.113 3.232 0 6.194.355 9.215-1.024 2.34-1.068 5.055-2.307 6.227-4.748 2.168-4.516 1.468-10.7-1.91-14.42C31.718 1.254 25.27 1.125 19.17 1.32zM11.135 38.93c-2.395.958-4.26 2.26-5.393 4.618-.798 1.66-1.25 3.548-.714 5.373.769 2.619 3.286 3.884 5.769 4.343.164.856.055 1.751.012 2.615-.03.606-.453 2.051.062 2.511.278-.446.783-.637 1.19-.95.811-.622 1.551-1.482 2.204-2.265.897-1.078.691-1.11 1.94-1.377 3.426-.735 6.424-2.576 8.412-5.512 1.733-2.56.501-6.324-1.978-7.961-1.516-1.001-3.37-1.814-5.165-2.17-2.32-.461-4.437.043-6.34.775zM11.461 63.635c-2.881.811-5.648 2.509-7.61 4.77-1.15 1.327-1.91 3.034-2.605 4.622-.565 1.292-.79 2.65-.611 4.062.237 1.866 1.97 3.078 3.45 4.025 1.549.99 3.031 1.778 4.82 2.268 1.445.398 2.984.679 4.493.539 1.131-.105 2.438-.86 3.549-.768.949.08 1.819 1.045 2.543 1.598.921.703 1.976 1.404 2.788 2.228.305-1.614.535-3.456.016-5.053 2.16-1.428 4.22-3.728 5.336-6.023.571-1.176.823-2.316.76-3.613-.068-1.371-.766-2.38-1.595-3.452-3.658-4.732-10.67-7.832-15.334-5.203zM78.02 63.57c-6.302-.215-12.234 7.573-9.411 13.382.967 1.99 2.369 3.278 4.02 4.653.5.417.402.396.423 1.071.026.86-.058 3.006.529 3.71.467.56.55.039.943-.525.585-.84 1.604-2.383 2.644-2.783.527-.203 1.013.105 1.665.27 1.633.416 3.707.513 5.383.45 3.327-.125 7.446-1.08 9.131-4.356.51-.99.844-2.494 1.013-3.597.211-1.384.04-2.803-.574-4.05-1.533-3.103-3.7-5.745-6.913-7.184-1.75-.784-3.386-1.238-5.297-1.436-1.22-.127-2.99-.27-3.555.395zM78.935 38.346c-2.01.033-4.044.482-5.67 1.734-1.67 1.285-2.312 3.167-2.569 5.18-.388 3.037 1.257 5.614 3.938 6.95 1.247.62 2.442 1.202 3.806 1.507.54.12 1.408.06 1.895.26.638.262 1.319 1.35 1.803 1.846.615.631 1.513 1.986 2.391 2.245.254-1.368.141-3.119.097-4.536 3.774-.85 7.645-4.017 6.518-8.32-.552-2.11-2.442-3.837-4.17-5.03-2.138-1.478-4.64-2.224-8.039-1.836zM73.84.996c-1.373.204-2.78.022-4.163.21-1.815.247-3.63.82-5.317 1.52-3.137 1.3-5.426 3.278-6.638 6.467-1.18 3.106-.456 6.026.336 9.125.327 1.278.392 2.283 1.208 3.36.65.858 1.487 1.767 2.447 2.286 2.472 1.337 5.81 1.251 8.537 1.582 2.27.274 4.512.232 6.792.22 1.098-.005 1.257.288 2.062 1.153 1.213 1.301 2.466 3.351 4.067 4.18.11-1.419.857-3.01.646-4.423 3.423-.095 6.3-.828 8.391-3.755 2.064-2.888 1.733-7.416 1.017-10.705-.763-3.502-3.638-6.096-6.464-8.021-1.516-1.032-3.089-1.8-4.876-2.28-2.415-.648-5-.354-8.045-.919z"/>
        </g>
        <path fill="#F0F2FA" d="M55.225 40.227c-3.439.244-6.903.67-10.35.722-2.874.044-5.53.077-8.366.62-.403.077-1.726.126-1.904.65-.162.479.314 1.593.303 2.178-.007.37-.324 1.697.112 1.994.365.248 2.566-.464 2.893-.507 4.04-.53 8.02-.468 12.077-.235 2.332.135 5.036.113 7.355-.295.38-.066.81-.132 1.165-.292.675-.305.542-.359.465-1.214-.084-.932-.343-2.205-.947-2.962-.802-1.004-1.822-.919-2.803-.66z"/>
        <path fill="#D8DEEC" d="M36.413 52.806c1.325.372 2.754.25 4.112.257 2.16.01 4.264.05 6.419-.098 3.37-.231 6.775-.154 10.134-.533 1.853-.21 3.766-.08 5.605-.4 1.384-.243 1.76-1.74 1.875-2.995.115-1.248.105-3.311-1.407-3.611-3.42-.678-7.291-.523-10.748-.334-4.275.234-8.538.402-12.817.517-2.493.068-5.502.137-7.857 1.095-1.722.7-1.58 2.59-1.075 4.093.914 2.72 4.82 2.467 7.196 2.333"/>
        <g fill="#644C4C">
            <path d="M33.212 53c.239.244.26.562.348.925.277 1.137.592 2.268.82 3.417.243 1.224.301 2.594.661 3.79.083.274.091.606.376.744.292.142 1.027-.093 1.307-.112 1.077-.072 2.164.051 3.241.056 5.258.022 10.519.298 15.777.197 1.196-.023 2.394-.055 3.586-.15.437-.036 1.141.025 1.551-.111.547-.182.293.016.421-.503.206-.831.056-1.907.19-2.771.158-1.02.353-2.029.483-3.054.141-1.108.85-3.147-.686-3.309-2.396-.253-4.985.22-7.394.24-3.281.027-6.565-.073-9.847-.07-2.015.002-3.993 0-6.004.122-1.6.097-3.164.65-4.83.59zM37 76.668c.106 2.289.572 4.482.922 6.733.232 1.487.427 3.281 1.316 4.567.572.828 1.477.761 2.414.886 2.346.312 4.624.294 6.993.267 1.819-.02 3.676-.131 5.465-.46.753-.137 1.65-.043 2.221-.63 1.239-1.275 1.44-3.886 1.676-5.507.31-2.143.502-4.43.484-6.59-.931.097-1.813.365-2.76.424-2.664.167-5.313.14-7.979.213-2.451.066-4.915.11-7.368.1-1.082-.003-2.608-.487-3.383-.003z"/>
        </g>
        <path fill="#CBE580" d="M61.169 62.403c-3.264.069-6.532-.404-9.8-.389-3.891.018-7.802-.293-11.691-.12-1.436.064-2.866.272-4.279.523-.906.161-1.696.157-2.048 1.078-.936 2.447.234 6.029.966 8.37.744 2.378.933 4.385 3.842 4.77 3.381.446 6.834.17 10.232.104 2.932-.058 5.835-.251 8.76-.476 1.44-.11 2.888-.205 3.722-1.526 1.42-2.248 1.442-5.301 1.87-7.847.194-1.158.774-5.678-1.574-4.487z"/>
        <path fill="#FFF" d="M46.995 65.191c-1.538.414-2.447.83-3.315 2.186-.66 1.03-.946 2.35-.805 3.578.29 2.522 3.322 3.468 5.442 2.837 2.444-.727 3.895-2.298 3.773-4.917-.057-1.219-.54-2.304-1.506-3.074-1.195-.952-2.37-.87-3.59-.61z"/>
        <path fill="#000" d="M62.894 44.422c-1.074-.241-2.197-.303-3.32-.303-.103-1.225-.23-2.581-.727-3.667-.597-1.303-1.978-1.073-3.204-1.048-3.203.065-6.398.325-9.594.53-3.217.208-6.44.447-9.664.52-1.163.025-2.255.255-2.418 1.59-.127 1.043-.054 2.229.169 3.312-.118.012-.235.024-.353.038-1.48.17-3.407.17-4.04 1.786-.497 1.266-.478 3.07-.112 4.367.406 1.439 1.569 2.1 2.981 2.251.163 1.222.338 2.44.538 3.657.196 1.188.334 2.436.631 3.615-.06.02-.121.038-.18.062-1.45.595-1.549 2.378-1.627 3.721-.103 1.766.052 3.517.353 5.258.28 1.614.552 3.383 1.193 4.899.515 1.219 1.466 1.93 2.684 2.224-.023.694.091 1.408.144 2.09.076 1.001.153 2.002.267 3 .194 1.684.103 3.884.94 5.41.816 1.485 2.47 1.72 4.006 1.882 1.99.21 3.993.298 5.993.27 2.002-.026 4-.174 5.985-.43 1.501-.195 3.58-.131 4.236-1.77.343-.86.464-1.85.647-2.753.197-.979.38-1.962.531-2.949.26-1.702.543-3.441.628-5.168.968-.432 1.635-1.244 2.064-2.284 1.328-3.21 1.787-6.915 1.826-10.36.015-1.399-.228-2.632-1.42-3.05.225-1.296.32-2.639.424-3.933.094-1.17.298-2.612.121-3.87 1.199-.17 2.243-.67 2.809-1.85.572-1.194.456-2.572.234-3.835-.286-1.617-1.052-2.831-2.745-3.212zm-26.997-.854c.022-.293.028-.59.06-.881.016-.142.086-.328.045-.29.217-.198 1.24-.122 1.542-.148 2.25-.193 4.511-.278 6.766-.405 2.18-.122 4.36-.23 6.541-.319 1.086-.044 2.172-.08 3.258-.1.511-.01 1.023-.014 1.534-.016.416-.002.944-.07 1.397-.008.357.763.409 1.89.412 2.765l-.537.015c-2.183.053-4.369.092-6.55.186-3.608.155-7.227.358-10.829.664l-.2.006a78.914 78.914 0 0 0-3.669.18c.117-.54.188-1.09.23-1.649zM56.212 85.88c-.068.287-.08.782-.251 1.01-.227.3-.477.27-.834.328a46.66 46.66 0 0 1-2.706.357 51.11 51.11 0 0 1-9.74.078c-.752-.065-1.625-.065-2.341-.322-.647-.232-.851-.7-.99-1.328-.343-1.549-.541-3.136-.865-4.691-.179-.86-.383-1.718-.583-2.575-.1-.43-.18-.876-.294-1.308 1.509.126 3.055.084 4.558.106 3.747.054 7.495.011 11.24-.127 1.412-.053 2.881-.032 4.304-.185-.452 2.897-.822 5.787-1.498 8.657zm5.083-21.347a34.168 34.168 0 0 1-.158 2.34 38.181 38.181 0 0 1-.74 4.517c-.25 1.112-.444 3.13-1.668 3.617-.585.232-1.279.203-1.898.234a218.901 218.901 0 0 1-16.95.207c-1.146-.03-3.196.259-4.09-.628-.856-.848-1.004-2.697-1.26-3.812-.344-1.497-.62-3.012-.673-4.55-.026-.75.007-1.49.128-2.232.045-.28.064-.712.223-.956.226-.348.615-.268 1.013-.276 1.598-.03 3.196-.082 4.795-.1 7.1-.079 14.212.146 21.298.604.018.342-.009.695-.02 1.035zM34.284 53.897c1.387.037 2.79-.013 4.164-.014 1.935 0 3.87-.016 5.805-.045 4-.06 7.996-.2 11.994-.304 1.597-.042 3.2-.05 4.797-.113-.274 1.108-.318 2.344-.469 3.402-.194 1.373-.468 2.75-.642 4.13-1.698-.014-3.4.017-5.096.015-1.378-.001-2.756-.004-4.133-.004a215.214 215.214 0 0 0-14.523-.107c-.112.003-.226.004-.342.005-.255-2.327-.943-4.695-1.555-6.965zm27.68-2.558c-1.578.123-3.17.145-4.75.214-6.7.293-13.414.453-20.12.426-1.5-.006-3.226.209-4.696-.12-1.392-.313-1.181-2.49-.89-3.555.2-.725.757-.691 1.442-.792.889-.13 1.783-.223 2.678-.297 1.604-.132 3.213-.206 4.82-.269 3.678-.141 7.356-.27 11.034-.402 1.843-.067 3.686-.144 5.529-.235a52.26 52.26 0 0 0 1.633-.114c1.008.001 2.018.031 3.014.16.652.085 1.35.163 1.642.82.245.552.286 1.313.325 1.908.086 1.329-.205 2.143-1.662 2.256z"/>
        <path fill="#000" d="M47.241 64.537c-.678.145-1.314.44-1.933.751-1.814.914-3.24 2.232-3.352 4.368-.178 3.399 3.255 4.817 6.212 4.453 3.138-.385 5.408-3.347 4.217-6.446-.754-1.962-2.977-3.59-5.144-3.126zm3.257 7.214c-1.463 1.576-4.859 1.497-6.272-.127-.89-1.022-1.034-2.617-.341-3.78.715-1.202 2.495-2.17 3.894-2.232 3.234-.143 4.682 4.024 2.719 6.14zM44.809 38.066c.161-.025.307-.191.345-.342.159-.633-.227-.941-.482-1.495-.255-.555-.39-1.156-.178-1.75.452-1.258 1.703-2.271 2.4-3.404 1.437-2.339 1.868-5.26.006-7.486-.795-.952-2.486.321-1.742 1.335 1.985 2.707-.394 5.264-1.952 7.435-.726 1.013-1.208 2.297-.79 3.529.314.928 1.287 2.356 2.393 2.178z"/>
        <path fill="#000" d="M50.266 25.801c.414 2.14-1.111 3.872-2.08 5.625-1.036 1.874-1.438 3.718-.545 5.713.336.747 1.593.216 1.334-.559-.62-1.852.848-3.805 1.815-5.26 1.027-1.544 1.937-3.26 1.811-5.166-.131-1.99-1.15-3.624-2.313-5.184-1-1.341-2.247-3.169-1.01-4.763.723-.932-.784-1.96-1.587-1.216-1.438 1.333-1.43 3.378-.69 5.077.881 2.025 2.834 3.506 3.265 5.733zM2.196 22.399c.777 1.648 2.037 3.07 3.699 3.874 1.503.727 3.113.962 4.751 1.048.105 1.323.165 2.712.495 3.955.328 1.233 1.62 1.587 2.517.678 1.145-1.16 2.14-2.563 3.09-3.883.337-.47.728-1.42 1.294-1.577.758-.212 1.92.05 2.708.094 5.696.316 12.612.573 16.55-4.374 1.845-2.318 2.331-5.359 2.405-8.24.069-2.718-.367-5.611-1.84-7.952C34.683.964 28.223.402 22.793.14 16.797-.148 8.747 1.514 4.457 6.03.51 10.185-.223 16.772 1.99 21.94c.066.153.135.306.207.459zm.822-9.98c.314-1.301.838-2.53 1.56-3.62a.655.655 0 0 0 .201-.188 11.94 11.94 0 0 1 2.286-2.414 9.64 9.64 0 0 1 1.065-.67c2.953-1.595 6.624-2.236 9.927-2.64a48.438 48.438 0 0 1 4.441-.338c1.617.056 3.234.182 4.817.393 2.535.339 5.276 1.086 7.183 2.876 1.717 1.61 2.538 3.929 2.787 6.22.251 2.32.186 4.973-.685 7.165-2.022 5.092-8.449 5.725-13.172 5.558-1.656-.059-3.315-.226-4.972-.226-1.56 0-2.15.775-2.973 1.967a44.466 44.466 0 0 1-2.024 2.706c-.122.15-.303.323-.476.503-.048-.277-.115-.557-.137-.754l-.285-2.595c-.06-.549-.41-.977-1.002-.995-3.027-.094-5.954-.706-7.511-3.541-1.512-2.752-1.757-6.399-1.03-9.407zM9.887 55.252c-.108.984-.229 1.967-.314 2.954-.057.66.664 1.051 1.23.93 1.816-.389 2.914-1.845 4.008-3.21.594-.74 1.073-1.381 2.059-1.522.955-.137 1.874-.25 2.791-.572 3.502-1.229 6.199-4.185 6.479-7.94.666-8.944-11.818-10.478-17.709-6.75a9.67 9.67 0 0 0-2.254 1.992c-1.008.938-1.812 2.08-2.279 3.42-.845 2.427-.35 5.355 1.394 7.277 1 1.103 2.38 1.718 3.827 1.998.074.014 1.03.186.909.031.138.175-.117 1.163-.141 1.392zm-1.203-3.52c-1.335-.4-2.29-1.329-2.83-2.48a.633.633 0 0 0-.044-.285c-.529-1.384-.502-2.838-.06-4.17.8-2.012 2.685-3.543 4.638-4.403 1.247-.55 2.593-.91 3.972-1.112 1.412-.06 2.839.087 4.183.39 3.163.712 5.717 2.78 5.603 6.22-.107 3.252-2.792 5.627-5.813 6.402-.842.217-1.743.182-2.57.435-.76.233-1.334.769-1.84 1.357-.706.825-1.344 1.879-2.221 2.554l.112-1.019c.08-.714.32-1.582.128-2.3-.389-1.45-2.11-1.245-3.258-1.59zM4.43 66.41a14.834 14.834 0 0 0-1.693 1.994c-.117.144-.233.29-.346.44C.53 71.312-.447 74.417.2 77.483c.688 3.265 3.155 5.336 6.212 6.427 3.636 1.299 7.678 1.352 11.378.285.983 1.355 2.2 2.504 3.586 3.464.438.303 1.127.085 1.374-.358.485-.872.776-1.807.818-2.807a5.758 5.758 0 0 0-.082-1.173c-.025-.15-.26-.764-.215-.883.073-.197.397-.337.554-.457 1.587-1.216 3.015-2.716 3.902-4.519 1.855-3.77 1.044-7.868-1.916-10.804-5.657-5.61-15.667-5.873-21.38-.248zm21.4 10.341c-.958 1.796-2.417 2.92-3.945 4.192-.885.737-.664 1.466-.427 2.463.144.607.129 1.217-.014 1.802a12.66 12.66 0 0 1-2.351-2.72c-.235-.36-.719-.616-1.157-.467-2.892.988-5.994 1.24-8.993.593-2.76-.595-5.635-1.83-6.65-4.66-1.927-5.371 2.792-10.69 7.445-12.752a13.53 13.53 0 0 1 2.412-.807 13.578 13.578 0 0 1 1.92-.14c3.41-.006 6.988 1.06 9.627 3.265 2.832 2.366 3.935 5.856 2.133 9.231z"/>
        <path fill="#000" d="M8.488 10.12c7.8.343 15.728 1.02 23.52.19.56-.06.56-.79 0-.85-7.793-.83-15.721-.153-23.52.19-.311.013-.312.457 0 .47zM8.488 14.563c7.8.342 15.728 1.018 23.52.188.56-.059.56-.789 0-.848-7.793-.83-15.721-.154-23.52.188-.311.014-.312.458 0 .472zM8.488 19.005c7.8.342 15.728 1.018 23.52.188.56-.06.56-.789 0-.848-7.793-.83-15.721-.154-23.52.188-.311.014-.312.458 0 .472zM8.767 44.431c4.046.342 8.158 1.019 12.201.189.29-.06.29-.79 0-.85-4.043-.83-8.155-.153-12.201.19-.162.013-.162.457 0 .471zM20.968 48.29c.29-.06.29-.79 0-.85-4.043-.83-8.155-.153-12.201.189-.162.014-.162.458 0 .471 4.046.343 8.158 1.02 12.201.19zM22.385 69.83c-4.043-.83-11.852-.153-15.898.19-.162.013-.162.457 0 .47 4.046.343 11.855 1.02 15.898.19.29-.06.29-.79 0-.85zM22.385 73.655c-4.043-.83-11.852-.153-15.898.19-.162.013-.162.457 0 .47 4.046.343 11.855 1.02 15.898.19.29-.06.29-.79 0-.85zM22.385 77.48c-4.043-.83-11.852-.153-15.898.189-.162.013-.162.457 0 .471 4.046.342 11.855 1.019 15.898.189.29-.06.29-.79 0-.849zM58.21 22.214c3.938 4.947 10.854 4.69 16.55 4.373.788-.043 1.95-.305 2.708-.093.567.158.957 1.107 1.295 1.577.95 1.32 1.944 2.722 3.09 3.882.897.91 2.188.556 2.516-.678.33-1.242.39-2.63.495-3.954 1.638-.086 3.248-.321 4.751-1.048 1.663-.804 2.923-2.226 3.7-3.875.071-.152.14-.305.206-.46 2.212-5.167 1.48-11.753-2.468-15.909C86.763 1.514 78.713-.148 72.717.14c-5.43.261-11.89.824-15.072 5.881-1.473 2.341-1.909 5.235-1.84 7.952.074 2.882.56 5.923 2.405 8.24zm.016-10.176c.248-2.291 1.07-4.61 2.786-6.22 1.907-1.79 4.648-2.537 7.184-2.876a49.37 49.37 0 0 1 4.816-.393c1.484.044 2.966.158 4.441.338 3.303.404 6.974 1.045 9.928 2.64.374.201.727.427 1.064.67a11.94 11.94 0 0 1 2.286 2.415.655.655 0 0 0 .202.187 11.42 11.42 0 0 1 1.56 3.62c.727 3.008.481 6.655-1.03 9.407-1.557 2.835-4.484 3.447-7.511 3.54-.591.02-.942.447-1.002.996l-.285 2.595c-.021.197-.089.477-.137.754-.173-.18-.354-.353-.476-.503a44.466 44.466 0 0 1-2.023-2.705c-.824-1.193-1.413-1.968-2.974-1.968-1.656 0-3.316.167-4.972.226-4.723.167-11.15-.466-13.172-5.558-.872-2.192-.937-4.845-.685-7.165zM86.39 53.829c1.449-.28 2.829-.895 3.828-1.998 1.744-1.922 2.239-4.85 1.394-7.277-.467-1.34-1.27-2.481-2.279-3.42a9.67 9.67 0 0 0-2.254-1.992c-5.89-3.728-18.375-2.194-17.709 6.75.28 3.755 2.977 6.711 6.479 7.94.918.322 1.836.435 2.791.572.986.141 1.465.783 2.059 1.523 1.094 1.364 2.192 2.82 4.008 3.209.566.12 1.287-.27 1.23-.93-.085-.987-.206-1.97-.314-2.954-.024-.23-.279-1.217-.141-1.392-.122.155.835-.017.909-.031zm-2.821-.508c-.193.718.048 1.586.128 2.3l.111 1.019c-.877-.675-1.515-1.73-2.221-2.554-.505-.588-1.079-1.124-1.84-1.357-.827-.253-1.728-.218-2.57-.435-3.021-.775-5.706-3.15-5.813-6.403-.114-3.44 2.44-5.507 5.603-6.22 1.344-.302 2.77-.449 4.183-.389 1.379.202 2.725.563 3.972 1.112 1.953.86 3.838 2.391 4.638 4.402.442 1.333.47 2.787-.06 4.171a.633.633 0 0 0-.044.285c-.54 1.152-1.495 2.08-2.83 2.48-1.149.344-2.869.139-3.257 1.59zM93.119 68.844c-.113-.15-.229-.296-.346-.44a14.834 14.834 0 0 0-1.692-1.994c-5.714-5.625-15.724-5.361-21.38.248-2.961 2.936-3.772 7.034-1.917 10.804.888 1.803 2.315 3.303 3.902 4.519.157.12.48.26.554.457.045.119-.19.733-.214.883-.064.387-.098.78-.082 1.173.041 1 .333 1.935.818 2.807.246.443.936.66 1.373.358 1.387-.96 2.604-2.11 3.586-3.464 3.7 1.067 7.742 1.014 11.379-.285 3.056-1.09 5.523-3.162 6.211-6.427.646-3.066-.33-6.171-2.192-8.64zm.099 9.11c-1.016 2.83-3.891 4.065-6.65 4.66-3 .647-6.102.395-8.994-.593-.438-.15-.922.108-1.157.468a12.66 12.66 0 0 1-2.35 2.719 3.816 3.816 0 0 1-.014-1.802c.236-.997.458-1.726-.428-2.463-1.528-1.273-2.986-2.396-3.945-4.192-1.802-3.375-.7-6.865 2.133-9.231 2.64-2.205 6.217-3.27 9.628-3.265.647.001 1.288.049 1.92.14.82.191 1.626.46 2.412.807 4.652 2.062 9.371 7.38 7.445 12.751z"/>
        <path fill="#000" d="M63.501 10.31c7.793.83 15.722.153 23.521-.19.312-.013.311-.457 0-.47-7.8-.343-15.727-1.02-23.52-.19-.56.06-.56.79 0 .85zM63.501 14.751c7.793.83 15.722.154 23.521-.188.312-.014.311-.458 0-.472-7.8-.342-15.727-1.018-23.52-.188-.56.06-.56.789 0 .848zM63.501 19.193c7.793.83 15.722.154 23.521-.188.312-.014.311-.458 0-.472-7.8-.342-15.727-1.018-23.52-.188-.56.06-.56.789 0 .848zM74.542 44.62c4.043.83 8.156.153 12.202-.189.161-.013.161-.457 0-.471-4.046-.342-8.16-1.019-12.202-.189-.29.06-.29.79 0 .849zM86.744 47.63c-4.046-.343-8.16-1.02-12.202-.19-.29.06-.29.79 0 .85 4.043.83 8.156.153 12.202-.19.161-.013.161-.457 0-.47zM89.023 70.02c-4.045-.343-11.855-1.02-15.898-.19-.29.06-.29.79 0 .85 4.043.83 11.852.153 15.898-.19.162-.013.162-.457 0-.47zM89.023 73.844c-4.045-.342-11.855-1.019-15.898-.189-.29.06-.29.79 0 .849 4.043.83 11.852.153 15.898-.189.162-.013.162-.457 0-.471zM89.023 77.669c-4.045-.342-11.855-1.019-15.898-.189-.29.06-.29.79 0 .849 4.043.83 11.852.153 15.898-.189.162-.014.162-.458 0-.471z"/>
    </g>
</svg>
