<svg xmlns="http://www.w3.org/2000/svg" width="78" height="90" viewBox="0 0 78 90">
    <g fill="none" fill-rule="nonzero">
        <path fill="#5B5D6D" d="M59.893 2.07l-14.88-.536-17.662-.428-5.674.535L16.86 3.89l-.75 28.153-.213 34.148 1.284 18.948 2.141 2.14 8.885 1.5 30.83-1.178 2.462-3.747.428-26.976 1.284-32.97L61.713 4.53l-.428-2.355z"/>
        <g fill="#5BD0FC">
            <path d="M57.836 5.164l-7.858-.371-2.891 2.15-13.938.593-2.446-2.298-8.303.37-2.076 1.409-.445 4.374-.444 9.49.444 10.897 39.218.37.445-5.708-.075-12.01-.593-7.19zM19.805 58.022l1.26 22.908 2.002 2.594 3.558.89 29.284-1.038 1.927-2.743.52-3.262-.297-20.313z"/>
        </g>
        <path fill="#F9D889" d="M74.443 31.852L7.054 32.964 1.94 35.411l-.667 18.904 3.113 2.67 68.13-.817 3.41-2.965.371-6.524-.964-12.603z"/>
        <path fill="#FFF" d="M63.47 34.818c-.757-.475-1.73.175-2.1.833-.442.781-.32 1.643-.353 2.497-3.012.373-4.626 4.64-4.66 7.166-.01.832-.099 2.69.586 3.298.73.648 2.475-.143 3.415.162.033 1.597.525 3.093 2.217 3.486.837.194 1.552.282 2.17-.424.586-.672.753-2.06.527-2.925.975-.02 3.164.29 3.872-.533.979-1.139.33-4.064-.034-5.355-.307-1.09-.826-2.093-1.672-2.866-.519-.476-1.13-.935-1.775-1.222-.167-.075-.593-.083-.715-.247-.359-.486.198-1.67.103-2.242-.128-.767-.762-1.045-1.58-1.628z"/>
        <path fill="#000" d="M77.41 40.382a57.84 57.84 0 0 0-.741-5.536c-.268-1.463-.537-3.08-2.08-3.706-1.521-.618-3.542-.311-5.149-.31-1.789 0-3.578.019-5.367.054.295-7.087.046-14.205-.682-21.258a148.7 148.7 0 0 0-.614-5.207c-.174-1.248-.506-2.572-1.604-3.33C59.9.209 58.036.46 56.574.436L50.976.343C43.728.223 36.479.082 29.23.007c-3.187-.033-6.459.02-9.519 1.02-1.328.435-2.866 1.034-3.568 2.335-.755 1.402-.604 3.323-.678 4.862-.197 4.085-.333 8.18-.325 12.27.007 3.685.058 7.33.51 10.978l-.568.016c-3.433.12-7.275-.044-10.527 1.22-1.411.55-2.641 1.378-3.276 2.798-.652 1.458-.76 3.162-.923 4.732a54.768 54.768 0 0 0-.03 10.94c.148 1.508.126 3.475.995 4.776.823 1.232 2.318 1.521 3.682 1.736 3.344.529 6.734.625 10.114.69-.12 7.023.524 14.09.924 21.097.1 1.75.139 3.517.313 5.261.138 1.39.671 2.529 1.885 3.282 1.227.761 2.785 1.063 4.184 1.321 1.632.302 3.293.466 4.95.552 7.082.365 14.215-.284 21.282-.702 1.77-.104 3.54-.206 5.31-.301 1.544-.083 3.278.02 4.762-.478 3.014-1.008 3.789-4.216 4-7.038.3-4.01.456-8.037.493-12.058.035-3.863.088-7.777-.243-11.633 1.444-.049 2.889-.105 4.332-.19 1.677-.1 3.427-.14 5.073-.5 2.98-.651 4.393-3.239 4.831-6.06.537-3.464.492-7.068.196-10.551zm-60.078-28.01c.082-1.684.181-3.368.291-5.05.1-1.525-.077-3.061 1.404-3.93 2.615-1.536 5.799-1.74 8.76-1.728 6.645.026 13.296.296 19.938.439l10.113.218c.677.015 1.516-.089 2.131.238.589.312.756 1.003.877 1.611.31 1.553.424 3.172.58 4.746.72 7.32.866 14.666.553 22.011-.71.016-1.421.035-2.131.055.483-6.716.48-13.462-.051-20.175-.114-1.44-.124-2.98-.46-4.389-.274-1.141-1.03-1.936-2.202-2.141-1.465-.256-3.06-.124-4.54-.093-1.275.026-2.764-.134-3.825.707-.51.404-.844.99-1.378 1.362-.625.436-1.44.556-2.184.606-1.588.107-3.203.013-4.793 0-1.737-.014-3.474-.02-5.21-.043-.59-.007-1.187-.01-1.765-.143-.807-.185-1.211-.612-1.686-1.251-.77-1.038-1.936-.987-3.12-.972a42.293 42.293 0 0 0-5.036.382c-1.23.164-2.534.436-3.406 1.396-.796.875-1.055 2.074-1.117 3.222-.2 3.718.009 7.505.037 11.229.016 2 .04 4.002.06 6.003.016 1.563.005 3.134.123 4.694-.87.018-1.741.039-2.612.064.5-6.335.34-12.72.65-19.068zm3.194 10.672c.016-3.214.013-6.428.014-9.641 0-1.44-.084-2.91.057-4.345.139-1.417.706-2.462 2.156-2.866 1.5-.418 3.111-.548 4.661-.623.695-.034 1.396-.06 2.092-.041.959.027 1.196.367 1.737 1.074 1.443 1.882 4.603 1.4 6.657 1.424l4.85.059c1.234.015 2.493.084 3.708-.175 1.231-.263 2.002-.894 2.849-1.774.996-1.035 2.829-.752 4.15-.757.747-.003 1.494.003 2.24.021.69.017 1.58-.04 2.091.51.394.425.465 1.132.529 1.68.097.83.152 1.668.215 2.501.532 6.968.501 13.971-.076 20.934-2.05.066-4.1.15-6.147.275l-.232.016c-8.567-.057-17.136-.036-25.699-.018a391.37 391.37 0 0 0-5.958.058c.221-2.753.093-5.563.106-8.312zm40.26 54.038c-.053 1.597-.093 3.2-.214 4.793-.104 1.376-.366 2.89-1.374 3.914-1.03 1.046-2.636.951-3.994 1.04-1.652.11-3.304.22-4.956.32-6.592.4-13.198.94-19.807.908-3.185-.016-6.39-.169-9.47-1.048-1.184-.338-2.404-.756-2.63-2.116-.264-1.587-.236-3.271-.34-4.877-.468-7.19-.71-14.47-1.703-21.614 1.018.02 2.035.034 3.052.046.03 5.817.37 11.642.594 17.453.094 2.436-.267 5.605 1.729 7.415 1.935 1.755 4.722 1.677 7.166 1.754 6.175.194 12.357.015 18.527-.266a628.56 628.56 0 0 0 4.674-.233c1.33-.07 2.837.018 4.092-.495 2.337-.957 2.74-3.734 2.86-5.95.366-6.74.455-13.574.154-20.322l1.69-.053c-.02 3.13.118 6.265.118 9.396-.001 3.312-.057 6.626-.167 9.935zm-3.223-3.035c-.036 1.41-.077 2.822-.154 4.23-.066 1.217-.16 2.575-.864 3.616-.78 1.155-2.178 1.096-3.428 1.173-1.437.087-2.875.173-4.313.252-5.631.312-11.267.528-16.908.461-1.319-.016-2.639-.041-3.957-.096-1.398-.058-2.882-.089-4.176-.687-2.611-1.207-2.322-4.114-2.445-6.557-.3-5.989-.481-12.003-.982-17.98 6.208.062 12.416.012 18.623-.108 6.212-.12 12.422-.304 18.631-.498-.09 5.396.108 10.796-.027 16.194zm17.78-27.155c-.06 2.302.092 5.933-1.99 7.504-1.256.947-3.151.914-4.646 1.028-1.688.128-3.379.207-5.07.271-7.019.266-14.042.484-21.063.661-6.986.176-13.974.288-20.961.264-3.527-.012-7.06-.025-10.585-.168-1.737-.07-3.474-.189-5.192-.465-.687-.11-1.422-.202-2.078-.448-.832-.31-1.082-.92-1.242-1.743-.636-3.281-.795-6.757-.601-10.09.1-1.712.284-3.419.569-5.11.24-1.43.525-2.824 1.903-3.569 2.84-1.533 6.674-1.308 9.8-1.435 3.465-.142 6.932-.206 10.398-.258 7.033-.107 14.066-.14 21.1-.216 7.05-.075 14.117-.024 21.164-.282l1.845-.064c1.423.033 2.857.056 4.269.187.757.07 1.072.258 1.243 1.015.2.887.348 1.792.493 2.689.545 3.377.732 6.81.644 10.23z"/>
        <path fill="#000" d="M29.539 13.532c6.883.065 13.77.55 20.655.329.872-.028.873-1.327 0-1.355-6.885-.221-13.772.264-20.655.329-.449.004-.45.693 0 .697zM29.539 17.008c6.883.065 13.77.55 20.655.329.872-.028.873-1.327 0-1.355-6.885-.221-13.772.264-20.655.329-.449.004-.45.693 0 .697zM29.539 20.484c6.883.064 13.77.55 20.655.328.872-.027.873-1.326 0-1.354-6.885-.222-13.772.264-20.655.328-.449.005-.45.694 0 .698zM50.194 78.348a134.6 134.6 0 0 0-6.547-.033c-4.728-.088-9.475.096-14.195.236-.989.03-.994 1.567 0 1.541 4.872-.127 9.75-.184 14.622-.35 2.04.03 4.08.026 6.12-.04.872-.027.873-1.326 0-1.354zM70.241 44.757c-.206-1.972-.863-4.038-2.117-5.603-.615-.767-1.398-1.27-2.262-1.572-.082-.892-.185-1.9-.764-2.594a2.468 2.468 0 0 0-2.3-.859c-1.663.288-2.5 2.013-2.019 3.494-1.348.404-2.59 1.13-3.444 2.282-.714.962-1.142 2.076-1.349 3.237-.47 1.669-.55 3.694 0 5.31.245.72.792.988 1.512 1.06.833.082 1.674.124 2.514.156-.492 1.707 1.33 3.49 3.014 3.52 1.864.034 3.394-1.642 3.183-3.433.75.003 1.509-.013 2.218-.147 2.148-.404 1.992-3.161 1.814-4.851zm-7.195-9.416c1.321-.254 1.356.931 1.43 1.929a8.479 8.479 0 0 0-1.63-.027c-.398.03-.798.084-1.194.162.038-.915.386-1.87 1.394-2.064zm-.187 16.436c-1.242-.086-1.633-1.066-1.863-2.076l.378.011c1.078.032 2.158.043 3.237.036.181 1.087-.504 2.117-1.752 2.03zm5.734-3.925c-.366.544-1.716.356-2.28.373a84.1 84.1 0 0 1-8.287-.16c-.476-.033-.597-.036-.765-.49-.12-.328-.154-.715-.197-1.061a8.387 8.387 0 0 1 .062-2.507c.38-2.106 1.842-4.077 3.763-4.966.108-.033.216-.063.325-.09 1.44-.355 3.237-.444 4.578.291 1.371.752 2.125 2.45 2.548 3.881.217.736.36 1.493.407 2.259.038.617.206 1.934-.154 2.47zM55.675 49.894c-1.303-.449-1.112-2.435-.948-3.485.087-.554-.675-.791-.855-.236-.34 1.054-.744 2.14-.412 3.257.272.915.944 1.57 1.82 1.896.892.331 1.299-1.12.395-1.432z"/>
        <path fill="#000" d="M53.687 50.92c-1.34-.85-1.166-2.724-.947-4.073.091-.564-.671-.792-.865-.238-.685 1.96-.966 4.311 1.093 5.54.79.473 1.491-.74.719-1.23zM71.897 46.363c-.136-.479-.947-.409-.9.122.131 1.481-.498 2.749-1.622 3.68-.587.486.192 1.508.821 1.064 1.56-1.103 2.22-3.039 1.701-4.866z"/>
        <path fill="#000" d="M72.96 47.016c.064 1.776-.694 3.38-1.976 4.583-.63.59.311 1.523.944.944 1.567-1.435 2.117-3.567 1.61-5.606-.08-.318-.59-.255-.578.079zM45.325 37.772c-5.985-.2-12.003-.461-17.99-.434-6 .028-11.996.165-17.991.359-.59.02-.591.898 0 .917 5.995.193 11.991.33 17.99.358 5.988.028 12.006-.234 17.991-.433.493-.017.494-.751 0-.767zM45.325 42.296c-5.985-.199-12.003-.46-17.99-.433-6 .028-11.996.165-17.991.358-.59.02-.591.898 0 .917 5.995.194 11.991.331 17.99.359 5.988.027 12.006-.235 17.991-.434.493-.016.494-.75 0-.767zM45.325 46.82c-5.985-.198-12.003-.46-17.99-.433-6 .028-11.996.166-17.991.359-.59.019-.591.898 0 .917 5.995.193 11.991.33 17.99.358 5.988.028 12.006-.234 17.991-.433.493-.016.494-.75 0-.767zM45.325 51.346c-5.985-.2-12.003-.462-17.99-.434-6 .028-11.996.165-17.991.359-.59.019-.591.897 0 .916 5.995.194 11.991.331 17.99.359 5.988.028 12.006-.235 17.991-.434.493-.016.494-.75 0-.766z"/>
    </g>
</svg>
