<svg xmlns="http://www.w3.org/2000/svg" width="102" height="90" viewBox="0 0 102 90">
    <g fill="none" fill-rule="nonzero">
        <g fill="#BCE0F9">
            <path d="M35.573 15.962c-.36.691-.456 1.505-.183 2.465.646 2.278.814 4.707.814 7.087 0 3.818-.23 7.66-.348 11.48-.111 3.59.351 7.245.021 10.822-.284 3.077.855 3.735 3.793 4.295 1.35.258 2.668.574 3.992.945 1.043.292 1.996.799 3.071 1.035 2.787.613 5.307 1.603 8.04 2.376 10.519 2.973 21.14 4.888 31.498 8.492 1.575.548 4.415 2.122 5.618.132.974-1.61-.088-4.332-.18-6.078-.449-8.576-.483-17.124-.232-25.7.096-3.3.474-6.55.469-9.863-.005-2.77.349-5.452.664-8.18.387-3.34.392-6.787.733-10.156.257-2.55.354-4.224-2.639-4.046-4.868.289-9.83 1.934-14.504 3.2-4.947 1.34-10 2.354-14.91 3.793-4.593 1.345-9.22 2.765-13.916 3.61-2.752.495-10.13 1.08-11.801 4.29zM1 27.234c.297.909.087 2.043.087 2.989 0 1.741-.156 3.56.007 5.298.088.935.481 1.775.613 2.7.073.52-.077 1.574.215 2.049 1.078 1.754 5.56.644 7.27.345.384-3.3.523-6.671.446-9.997-.031-1.344.45-3.622-.083-4.95-.405-1.007-2.349-.564-3.258-.41-1.193.202-4.732.474-5.297 1.976z"/>
        </g>
        <path fill="#5B5D6D" d="M11.335 19.51c-.237 2.512-1.013 4.922-1.207 7.453-.224 2.917-.471 6.234-.253 9.153.17 2.272.162 4.539.309 6.808.109 1.688.096 3.866.841 5.382 1.35 2.746 5.343 2.643 7.983 2.991 4.05.534 8.305.72 12.376.439 1.097-.076 2.857.086 3.824-.506 1.36-.832 1.308-2.931 1.33-4.3.07-4.381.119-8.873-.24-13.233-.31-3.784-.124-7.575-.75-11.335-.324-1.949.002-4.86-1.26-6.523-2.183-2.873-8.054-1.22-10.946-.813-3.91.55-9.604.338-12.007 4.484z"/>
        <path fill="#BCE0F9" d="M15.437 56.016c-1.236 3.263-1.322 7.463-1.881 10.943-.52 3.239-1.146 6.445-1.645 9.691-.614 3.997-2.232 9.968 3.017 11.226 2.278.546 4.705.948 7.062.89 1.893-.045 4.21.17 4.943-1.879 2.188-6.112.928-13.064 1.585-19.414.39-3.776.702-7.826.282-11.61-.144-1.3-.051-3.156-.49-4.378-3.774-.225-7.625-.322-11.398-.118-.613 1.984-1.288 3.951-1.475 4.65z"/>
        <path fill="#ED6D66" d="M28.563 56.6c-1.137 1.638.325 5.606.45 7.53.042.641-.124 1.108.297 1.566.942 1.026 4.183.864 4.773-.334 1.136-2.308.03-5.579-.48-7.9-.525-2.389-1.737-1.702-5.04-.863z"/>
        <path fill="#5B5D6D" d="M93.022 16.01c-.376 11.36-1.689 22.824-1.04 34.18 1.035-.26 2.045-1.497 2.814-2.202 1.35-1.235 2.45-3.048 3.274-4.687 1.945-3.865 2.592-8.317 2.572-12.607-.016-3.445-1.296-6.676-3.124-9.566-.626-.99-3.284-5.734-4.496-5.117z"/>
        <path fill="#000" d="M101.52 31.932c-.237-6.468-2.269-12.699-7.285-17.02.14-3.797.223-7.602.057-11.4C94.226 2.007 93.838.3 91.996.199c-.884-.048-1.827.28-2.683.46-1.065.225-2.13.452-3.195.68C77.954 3.093 69.8 4.91 61.692 6.903c-9.026 2.22-18.066 4.435-26.877 7.397-.995-.613-2.255-.817-3.569-.833-4.265-.05-8.603.258-12.826 1.027-1.968.189-4.331.235-6.058 1.193-1.79.992-2.505 2.85-2.98 4.723-.35 1.385-.507 2.798-.582 4.218a15.469 15.469 0 0 0-3.612.047c-1.233.165-2.77.3-3.882.888-1.158.612-1.284 1.833-1.294 3.006-.013 1.476-.023 2.955.012 4.43.034 1.476.114 2.95.23 4.422.097 1.214-.001 2.767 1.044 3.607.953.766 2.503.842 3.668.99 1.234.157 2.5.247 3.746.17v.082c-.002 2.064-.047 4.305 1.22 6.06 1.198 1.66 3.267 2.57 5.17 3.165.216.067.434.127.652.186-1.25 5.643-2.8 11.219-4.042 16.865a97.762 97.762 0 0 0-1.575 9.067c-.328 2.669-.725 5.743.372 8.296 1.099 2.556 4.354 2.983 6.802 3.398 1.502.254 3.024.418 4.547.46 1.352.038 2.925.168 4.185-.406 2.467-1.126 2.747-4.58 3.062-6.918.416-3.094.614-6.228.765-9.345.09-1.879.143-3.76.168-5.641 1.651.381 4.02.085 4.815-1.524.376-.761.294-1.66.29-2.483l-.014-3.514c-.006-1.468.072-3.188-1.127-4.262-1.023-.916-2.79-.882-4.233-.57a19.832 19.832 0 0 0-.25-2.253c1.809.098 3.963.324 5.491-.641 7.27 2.293 14.67 4.228 22.002 6.316 7.378 2.101 14.755 4.21 22.132 6.32 4.042 1.156 8.102 2.26 12.253 2.962.908.153 1.875-.381 1.855-1.407a710.19 710.19 0 0 1-.129-15.707c.248.005.504-.062.75-.228 5.918-3.993 7.895-11.817 7.648-18.533zm-92.788-4.66c-.022 2.438-.01 4.877-.013 7.314l-.005 4.971c-.829.02-1.655.037-2.487-.022a18.77 18.77 0 0 1-1.748-.203c-.311-.051-1.313-.085-1.53-.316-.209-.222-.161-1.287-.195-1.597-.047-.42-.09-.84-.127-1.26a72.51 72.51 0 0 1-.224-3.372c-.049-1.124-.085-2.251-.052-3.376.012-.395-.015-.876.054-1.265.103-.584.377-.595.932-.803 1.724-.648 3.585-1.093 5.417-1.425-.011.452-.018.903-.022 1.355zm23.527 29.876c.777.406.518 1.846.49 2.567l-.143 3.734c-.016.406.1 1.027-.212 1.297-.414.359-1.594.098-2.061.022a1.67 1.67 0 0 0-.28-.021c-.002-.69-.005-1.378-.014-2.066a144.285 144.285 0 0 0-.158-5.207 83.2 83.2 0 0 1-.028-.604c.846-.008 1.79-.043 2.406.278zm-4.915 11.827c-.08 2.822-.24 5.64-.476 8.454-.221 2.625-.417 5.307-1.103 7.861-.296 1.1-.606 1.657-1.807 1.727-1.392.08-2.81-.002-4.195-.151a27.618 27.618 0 0 1-3.76-.686c-1.045-.262-2.473-.4-2.939-1.501-.97-2.294-.45-5.307-.192-7.697.29-2.683.744-5.345 1.243-7.997 1.063-5.656 2.404-11.249 3.3-16.935 1.442.262 2.915.392 4.368.485 1.722.11 3.447.18 5.172.232-.047 1.206.102 2.415.17 3.623.08 1.445.15 2.89.196 4.337.088 2.75.102 5.499.023 8.248zm7.07-21.16c-.138.649-.233 1.772-.834 2.184-.714.49-2.014.274-2.827.268a252.58 252.58 0 0 1-6.175-.122c-3.762-.12-7.914-.138-11.246-2.13-1.808-1.082-2.063-2.774-2.12-4.73-.062-2.168-.081-4.336-.121-6.504-.077-4.149-.4-8.379-.058-12.52.165-1.997.467-4.406 1.985-5.884.732-.713 1.744-.825 2.717-.955a91.787 91.787 0 0 1 3.447-.387c3.579-.34 7.184-.666 10.785-.898.355.01.71.021 1.065.038.754.035 1.91-.039 2.492.546.483.486.52 1.417.607 2.05.159 1.147.29 2.3.412 3.452.452 4.25.68 8.522.686 12.796.006 4.221.062 8.65-.816 12.796zm47.251 2.592c-.132 4.024-.248 8.044-.519 12.06-3.58-.987-7.137-2.073-10.69-3.09l-22.182-6.351c-3.841-1.1-7.672-2.259-11.537-3.278.375-1.145.51-2.425.657-3.473.332-2.36.459-4.748.55-7.128.197-5.064.037-10.148-.417-15.194-.123-1.37-.268-2.74-.44-4.104-.142-1.13-.205-2.346-.591-3.427a4.473 4.473 0 0 0-.428-.881c7.414-1.477 14.746-3.301 22.111-5.006 7.714-1.786 15.436-3.536 23.178-5.195 1.156-.248 2.313-.49 3.469-.733-.554 3.235-.798 6.539-1.093 9.798-.361 3.992-.618 7.992-.863 11.993-.487 7.996-.94 16.002-1.205 24.009zm9.78-34.944c-.312 7.93-.814 15.849-1.027 23.784a565.147 565.147 0 0 0-.129 25.406 107.064 107.064 0 0 1-6.997-1.608c-.11-7.633.425-15.28.798-22.9.389-7.933 1.003-15.85 1.457-23.778.228-3.99.602-8.022.544-12.027.412-.087.824-.176 1.236-.261.925-.193 1.85-.384 2.775-.574.395-.082.912-.101 1.28-.263l.076-.015c.012.103.03.206.033.285.175 3.98.111 7.971-.046 11.951zm5.804 26.008c-.94 2.277-2.347 4.097-4.103 5.713.018-1.99.046-3.978.085-5.967.157-7.927.575-15.838.902-23.758 3.36 3.787 4.525 9.385 4.667 14.267.096 3.303-.28 6.667-1.55 9.745z"/>
        <path fill="#000" d="M29.502 22.457c-4.486-.156-9 .043-13.486.156-.67.017-.67 1.02 0 1.037 4.485.113 9 .313 13.486.157.872-.03.874-1.32 0-1.35zM29.502 26.36c-4.486-.155-9 .044-13.486.157-.67.017-.67 1.02 0 1.037 4.485.113 9 .313 13.486.157.872-.03.874-1.32 0-1.35zM29.502 30.265c-4.486-.156-9 .043-13.486.157-.67.017-.67 1.02 0 1.036 4.485.113 9 .313 13.486.157.872-.03.874-1.32 0-1.35zM29.502 34.169c-4.486-.156-9 .044-13.486.157-.67.017-.67 1.02 0 1.036 4.485.113 9 .313 13.486.157.872-.03.874-1.32 0-1.35zM29.502 38.073c-4.486-.156-9 .044-13.486.157-.67.017-.67 1.02 0 1.036 4.485.114 9 .313 13.486.157.872-.03.874-1.32 0-1.35zM29.502 41.977c-4.486-.156-9 .044-13.486.157-.67.017-.67 1.02 0 1.037 4.485.113 9 .312 13.486.156.872-.03.874-1.32 0-1.35z"/>
    </g>
</svg>
