<svg xmlns="http://www.w3.org/2000/svg" width="118" height="30" viewBox="0 0 118 30">
    <g fill="#FFF" fill-rule="nonzero">
        <path d="M57.596 6.192L56.18 19.946a2.507 2.507 0 0 1-2.493 2.25h-3.933a2.322 2.322 0 0 1-2.308-2.567l.181-1.702a.968.968 0 0 1 .962-.867.965.965 0 0 0 .96-.866l.61-5.924a1.58 1.58 0 0 0-1.57-1.742c-.993 0-1.826.753-1.927 1.742l-1.684 16.477a2.507 2.507 0 0 1-2.5 2.253l-1.977-.005a2.507 2.507 0 0 1-2.487-2.764L40.12 5.678a2.507 2.507 0 0 1 2.493-2.252h12.49a2.507 2.507 0 0 1 2.493 2.766zm19.445.002L75.61 19.93a2.507 2.507 0 0 1-2.495 2.249l-12.462-.013a2.507 2.507 0 0 1-2.49-2.763l1.403-13.723a2.507 2.507 0 0 1 2.493-2.253h12.488a2.507 2.507 0 0 1 2.493 2.768zm-9.005 2.334a1.94 1.94 0 0 0-1.93 1.742l-.518 5.023a1.595 1.595 0 0 0 1.577 1.759 1.936 1.936 0 0 0 1.936-1.743l.508-5.039a1.583 1.583 0 0 0-1.573-1.742zm9.547 10.887l1.429-13.74a2.507 2.507 0 0 1 2.492-2.25h1.976a2.507 2.507 0 0 1 2.493 2.77l-1.43 13.73a2.507 2.507 0 0 1-2.48 2.249l-1.975.01a2.507 2.507 0 0 1-2.505-2.769zm27.805-13.223l-1.417 13.742a2.507 2.507 0 0 1-2.487 2.251l-1.976.005a2.507 2.507 0 0 1-2.5-2.765l.94-9.129a1.603 1.603 0 0 0-1.594-1.768 1.967 1.967 0 0 0-1.956 1.769l-.979 9.623a2.507 2.507 0 0 1-2.5 2.254l-1.924-.005a2.507 2.507 0 0 1-2.487-2.763l1.404-13.727a2.507 2.507 0 0 1 2.493-2.253h12.49a2.507 2.507 0 0 1 2.493 2.766zm.25 15.97l2.022-19.9a2.507 2.507 0 0 1 2.488-2.255L113.226 0a1.533 1.533 0 0 1 1.53 1.685 1.545 1.545 0 0 0 1.528 1.698h.098a1.627 1.627 0 0 1 1.61 1.794l-.16 1.54a2.008 2.008 0 0 1-1.986 1.803 2.008 2.008 0 0 0-1.988 1.803l-.514 4.987a1.587 1.587 0 0 0 1.578 1.75 1.598 1.598 0 0 1 1.59 1.752l-.105 1.096a2.507 2.507 0 0 1-2.499 2.268l-8.27-.013zM14.742 1.042h.388c3.1 0 6.042.969 8.825 2.908.54.408 1.145.941 1.814 1.599.893.94 1.586 1.83 2.08 2.67 1.338 2.302 2.007 4.705 2.007 7.211 0 2.154-.505 4.252-1.515 6.293-.552 1.032-1.356 1.548-2.413 1.548-1.033 0-1.832-.51-2.396-1.531-.117-.34-.176-.635-.176-.885v-.22c0-.363.153-.811.458-1.344a9.356 9.356 0 0 0 .846-3.86c0-2.473-.922-4.661-2.766-6.566-.904-.828-1.668-1.383-2.29-1.667-1.48-.77-2.96-1.156-4.44-1.156h-.07a.927.927 0 0 1-.176-.017.677.677 0 0 1-.158.017h-.106c-1.761 0-3.517.55-5.267 1.65-1.233.895-2.167 1.848-2.8 2.857-.929 1.565-1.392 3.152-1.392 4.762v.238c0 2.472.986 4.689 2.959 6.65.023 0 .2.148.528.442 1.88 1.463 3.964 2.194 6.254 2.194.387 0 1.016-.05 1.885-.153 1.08 0 1.885.516 2.413 1.548.118.306.176.595.176.867v.17c0 .692-.305 1.304-.916 1.837-.305.284-.763.476-1.374.578-.552.069-.94.103-1.162.103h-2.044c-1.174 0-2.677-.324-4.51-.97-3.675-1.474-6.358-3.946-8.05-7.415C.462 19.484.016 17.5.016 15.447v-.034c0-3.48 1.221-6.627 3.664-9.44C4.76 4.886 5.47 4.246 5.81 4.053c.857-.635 1.597-1.094 2.22-1.378 2.196-1.088 4.433-1.632 6.711-1.632z"/>
        <path d="M23.89 24.554c1.034 0 1.85.482 2.449 1.445.211.431.317.84.317 1.225 0 .952-.458 1.723-1.374 2.313-.376.204-.693.312-.951.323h-.881c-.482 0-1.022-.272-1.62-.816-.494-.545-.74-1.151-.74-1.82 0-.918.434-1.667 1.303-2.245a2.734 2.734 0 0 1 1.497-.425z"/>
    </g>
</svg>
